M48
; DRILL file {KiCad (6.0.2-0)} date 2022 July 03, Sunday 14:43:15
; FORMAT={-:-/ absolute / inch / decimal}
; #@! TF.CreationDate,2022-07-03T14:43:15+02:00
; #@! TF.GenerationSoftware,Kicad,Pcbnew,(6.0.2-0)
; #@! TF.FileFunction,Plated,1,2,PTH
FMAT,2
INCH
; #@! TA.AperFunction,Plated,PTH,ViaDrill
T1C0.0157
; #@! TA.AperFunction,Plated,PTH,ComponentDrill
T2C0.0300
; #@! TA.AperFunction,Plated,PTH,ComponentDrill
T3C0.0374
; #@! TA.AperFunction,Plated,PTH,ComponentDrill
T4C0.0394
; #@! TA.AperFunction,Plated,PTH,ComponentDrill
T5C0.0512
%
G90
G05
T1
X5.2402Y-3.0492
X5.2402Y-3.0492
X5.2402Y-3.0492
T2
X2.2618Y-3.5374
X2.3484Y-3.5374
X2.435Y-3.5374
X2.5217Y-3.5374
X2.6122Y-3.5335
T3
X2.7559Y-2.9744
X2.7559Y-3.0728
X2.7559Y-3.1713
X3.0Y-3.5315
X3.0138Y-2.9724
X3.0138Y-3.0709
X3.0138Y-3.1693
X3.0984Y-3.5315
X3.1969Y-3.5315
X3.2717Y-2.9764
X3.2717Y-3.0748
X3.2717Y-3.1732
X3.2953Y-3.5315
X3.5256Y-3.5315
X3.624Y-3.5315
X3.7224Y-3.5315
X3.9626Y-3.3937
X4.061Y-3.3937
X4.1594Y-3.3937
X4.2579Y-3.3937
X7.7343Y-3.3524
X7.8327Y-3.3524
X7.9311Y-3.3524
X8.0295Y-3.3524
X8.5354Y-2.9646
X8.5354Y-3.063
X8.5354Y-3.1614
X8.7913Y-2.9646
X8.7913Y-3.063
X8.7913Y-3.1614
X9.0443Y-2.9646
X9.0443Y-3.063
X9.0443Y-3.1614
T4
X1.9994Y-2.9665
X1.9994Y-3.0665
X1.9994Y-3.1665
X1.9994Y-3.2665
X2.0994Y-2.9665
X2.0994Y-3.0665
X2.0994Y-3.1665
X2.0994Y-3.2665
X3.5295Y-2.9744
X3.5295Y-3.0728
X3.7874Y-2.9744
X3.7874Y-3.0728
X4.0453Y-2.9744
X4.0453Y-3.0728
X5.0512Y-2.7159
X5.0512Y-2.8341
X5.1693Y-2.7159
X5.1693Y-2.8341
X5.2874Y-2.7159
X5.2874Y-2.8341
X5.4055Y-2.7159
X5.4055Y-2.8341
X5.5236Y-2.7159
X5.5236Y-2.8341
X5.6417Y-2.7159
X5.6417Y-2.8341
X5.7598Y-2.7159
X5.7598Y-2.8341
X6.0453Y-2.7159
X6.0453Y-2.8341
X6.1634Y-2.7159
X6.1634Y-2.8341
X6.2815Y-2.7159
X6.2815Y-2.8341
X6.3996Y-2.7159
X6.3996Y-2.8341
X6.5177Y-2.7159
X6.5177Y-2.8341
X6.6358Y-2.7159
X6.6358Y-2.8341
X6.7539Y-2.7159
X6.7539Y-2.8341
X7.7657Y-2.9665
X7.7657Y-3.065
X8.0236Y-2.9665
X8.0236Y-3.065
X8.2795Y-2.9665
X8.2795Y-3.065
T5
X2.3228Y-3.0787
X2.5197Y-3.0787
X4.5079Y-3.4094
X4.7047Y-3.4094
X7.1024Y-3.4094
X7.2992Y-3.4094
X9.2815Y-3.065
X9.4783Y-3.065
T0
M30
