%TF.GenerationSoftware,KiCad,Pcbnew,(6.0.2-0)*%
%TF.CreationDate,2022-03-08T14:15:39+01:00*%
%TF.ProjectId,Wasp-PCB,57617370-2d50-4434-922e-6b696361645f,rev?*%
%TF.SameCoordinates,Original*%
%TF.FileFunction,Soldermask,Bot*%
%TF.FilePolarity,Negative*%
%FSLAX46Y46*%
G04 Gerber Fmt 4.6, Leading zero omitted, Abs format (unit mm)*
G04 Created by KiCad (PCBNEW (6.0.2-0)) date 2022-03-08 14:15:39*
%MOMM*%
%LPD*%
G01*
G04 APERTURE LIST*
G04 Aperture macros list*
%AMRoundRect*
0 Rectangle with rounded corners*
0 $1 Rounding radius*
0 $2 $3 $4 $5 $6 $7 $8 $9 X,Y pos of 4 corners*
0 Add a 4 corners polygon primitive as box body*
4,1,4,$2,$3,$4,$5,$6,$7,$8,$9,$2,$3,0*
0 Add four circle primitives for the rounded corners*
1,1,$1+$1,$2,$3*
1,1,$1+$1,$4,$5*
1,1,$1+$1,$6,$7*
1,1,$1+$1,$8,$9*
0 Add four rect primitives between the rounded corners*
20,1,$1+$1,$2,$3,$4,$5,0*
20,1,$1+$1,$4,$5,$6,$7,0*
20,1,$1+$1,$6,$7,$8,$9,0*
20,1,$1+$1,$8,$9,$2,$3,0*%
G04 Aperture macros list end*
%ADD10C,1.000000*%
%ADD11RoundRect,0.250001X-0.499999X-0.499999X0.499999X-0.499999X0.499999X0.499999X-0.499999X0.499999X0*%
%ADD12C,1.500000*%
%ADD13O,1.524000X2.524000*%
%ADD14RoundRect,0.250000X0.750000X-0.600000X0.750000X0.600000X-0.750000X0.600000X-0.750000X-0.600000X0*%
%ADD15O,2.000000X1.700000*%
%ADD16RoundRect,0.250000X0.725000X-0.600000X0.725000X0.600000X-0.725000X0.600000X-0.725000X-0.600000X0*%
%ADD17O,1.950000X1.700000*%
%ADD18R,1.700000X1.700000*%
%ADD19O,1.700000X1.700000*%
%ADD20R,2.500000X2.500000*%
%ADD21C,2.500000*%
%ADD22RoundRect,0.250000X-0.600000X-0.725000X0.600000X-0.725000X0.600000X0.725000X-0.600000X0.725000X0*%
%ADD23O,1.700000X1.950000*%
%ADD24RoundRect,0.250000X-0.725000X0.600000X-0.725000X-0.600000X0.725000X-0.600000X0.725000X0.600000X0*%
%ADD25RoundRect,0.250000X-0.750000X0.600000X-0.750000X-0.600000X0.750000X-0.600000X0.750000X0.600000X0*%
G04 APERTURE END LIST*
D10*
%TO.C,J5*%
X125300000Y-72925000D03*
X149300000Y-72925000D03*
D11*
X128300000Y-68985000D03*
D12*
X131300000Y-68985000D03*
X134300000Y-68985000D03*
X137300000Y-68985000D03*
X140300000Y-68985000D03*
X143300000Y-68985000D03*
X146300000Y-68985000D03*
X128300000Y-71985000D03*
X131300000Y-71985000D03*
X134300000Y-71985000D03*
X137300000Y-71985000D03*
X140300000Y-71985000D03*
X143300000Y-71985000D03*
X146300000Y-71985000D03*
%TD*%
D13*
%TO.C,J25*%
X57450000Y-89850000D03*
X59650000Y-89850000D03*
X61850000Y-89850000D03*
X64050000Y-89850000D03*
X66350000Y-89750000D03*
%TD*%
D10*
%TO.C,J6*%
X174550000Y-72925000D03*
X150550000Y-72925000D03*
D11*
X153550000Y-68985000D03*
D12*
X156550000Y-68985000D03*
X159550000Y-68985000D03*
X162550000Y-68985000D03*
X165550000Y-68985000D03*
X168550000Y-68985000D03*
X171550000Y-68985000D03*
X153550000Y-71985000D03*
X156550000Y-71985000D03*
X159550000Y-71985000D03*
X162550000Y-71985000D03*
X165550000Y-71985000D03*
X168550000Y-71985000D03*
X171550000Y-71985000D03*
%TD*%
D14*
%TO.C,J14*%
X203800000Y-77850000D03*
D15*
X203800000Y-75350000D03*
%TD*%
D16*
%TO.C,J16*%
X216800000Y-80300000D03*
D17*
X216800000Y-77800000D03*
X216800000Y-75300000D03*
%TD*%
D18*
%TO.C,J19*%
X53325000Y-75350000D03*
D19*
X50785000Y-75350000D03*
X53325000Y-77890000D03*
X50785000Y-77890000D03*
X53325000Y-80430000D03*
X50785000Y-80430000D03*
X53325000Y-82970000D03*
X50785000Y-82970000D03*
%TD*%
D20*
%TO.C,J2*%
X180400000Y-86600000D03*
D21*
X185400000Y-86600000D03*
%TD*%
D22*
%TO.C,J18*%
X196450000Y-85150000D03*
D23*
X198950000Y-85150000D03*
X201450000Y-85150000D03*
X203950000Y-85150000D03*
%TD*%
D24*
%TO.C,J10*%
X83100000Y-75600000D03*
D17*
X83100000Y-78100000D03*
X83100000Y-80600000D03*
%TD*%
D20*
%TO.C,J3*%
X64000000Y-78200000D03*
D21*
X59000000Y-78200000D03*
%TD*%
D16*
%TO.C,J17*%
X223300000Y-80300000D03*
D17*
X223300000Y-77800000D03*
X223300000Y-75300000D03*
%TD*%
D22*
%TO.C,J24*%
X76200000Y-89700000D03*
D23*
X78700000Y-89700000D03*
X81200000Y-89700000D03*
X83700000Y-89700000D03*
%TD*%
D25*
%TO.C,J8*%
X96200000Y-75550000D03*
D15*
X96200000Y-78050000D03*
%TD*%
D22*
%TO.C,J23*%
X89550000Y-89700000D03*
D23*
X92050000Y-89700000D03*
X94550000Y-89700000D03*
%TD*%
D20*
%TO.C,J1*%
X114500000Y-86600000D03*
D21*
X119500000Y-86600000D03*
%TD*%
D20*
%TO.C,J4*%
X240750000Y-77850000D03*
D21*
X235750000Y-77850000D03*
%TD*%
D25*
%TO.C,J9*%
X89650000Y-75550000D03*
D15*
X89650000Y-78050000D03*
%TD*%
D24*
%TO.C,J21*%
X70000000Y-75550000D03*
D17*
X70000000Y-78050000D03*
X70000000Y-80550000D03*
%TD*%
D22*
%TO.C,J12*%
X100650000Y-86200000D03*
D23*
X103150000Y-86200000D03*
X105650000Y-86200000D03*
X108150000Y-86200000D03*
%TD*%
D25*
%TO.C,J7*%
X102750000Y-75550000D03*
D15*
X102750000Y-78050000D03*
%TD*%
D14*
%TO.C,J15*%
X210300000Y-77850000D03*
D15*
X210300000Y-75350000D03*
%TD*%
D14*
%TO.C,J13*%
X197250000Y-77850000D03*
D15*
X197250000Y-75350000D03*
%TD*%
D24*
%TO.C,J11*%
X76550000Y-75500000D03*
D17*
X76550000Y-78000000D03*
X76550000Y-80500000D03*
%TD*%
D16*
%TO.C,J22*%
X229725000Y-80300000D03*
D17*
X229725000Y-77800000D03*
X229725000Y-75300000D03*
%TD*%
M02*
