%TF.GenerationSoftware,KiCad,Pcbnew,(6.0.2-0)*%
%TF.CreationDate,2022-03-08T14:15:39+01:00*%
%TF.ProjectId,Wasp-PCB,57617370-2d50-4434-922e-6b696361645f,rev?*%
%TF.SameCoordinates,Original*%
%TF.FileFunction,Legend,Bot*%
%TF.FilePolarity,Positive*%
%FSLAX46Y46*%
G04 Gerber Fmt 4.6, Leading zero omitted, Abs format (unit mm)*
G04 Created by KiCad (PCBNEW (6.0.2-0)) date 2022-03-08 14:15:39*
%MOMM*%
%LPD*%
G01*
G04 APERTURE LIST*
%ADD10C,0.150000*%
%ADD11C,0.120000*%
G04 APERTURE END LIST*
D10*
X202697619Y-70183333D02*
X203697619Y-70183333D01*
X203697619Y-69802380D01*
X203650000Y-69707142D01*
X203602380Y-69659523D01*
X203507142Y-69611904D01*
X203364285Y-69611904D01*
X203269047Y-69659523D01*
X203221428Y-69707142D01*
X203173809Y-69802380D01*
X203173809Y-70183333D01*
X202697619Y-68754761D02*
X203221428Y-68754761D01*
X203316666Y-68802380D01*
X203364285Y-68897619D01*
X203364285Y-69088095D01*
X203316666Y-69183333D01*
X202745238Y-68754761D02*
X202697619Y-68850000D01*
X202697619Y-69088095D01*
X202745238Y-69183333D01*
X202840476Y-69230952D01*
X202935714Y-69230952D01*
X203030952Y-69183333D01*
X203078571Y-69088095D01*
X203078571Y-68850000D01*
X203126190Y-68754761D01*
X202697619Y-68278571D02*
X203364285Y-68278571D01*
X203173809Y-68278571D02*
X203269047Y-68230952D01*
X203316666Y-68183333D01*
X203364285Y-68088095D01*
X203364285Y-67992857D01*
X203364285Y-67802380D02*
X203364285Y-67421428D01*
X203697619Y-67659523D02*
X202840476Y-67659523D01*
X202745238Y-67611904D01*
X202697619Y-67516666D01*
X202697619Y-67421428D01*
X202745238Y-67135714D02*
X202697619Y-67040476D01*
X202697619Y-66850000D01*
X202745238Y-66754761D01*
X202840476Y-66707142D01*
X202888095Y-66707142D01*
X202983333Y-66754761D01*
X203030952Y-66850000D01*
X203030952Y-66992857D01*
X203078571Y-67088095D01*
X203173809Y-67135714D01*
X203221428Y-67135714D01*
X203316666Y-67088095D01*
X203364285Y-66992857D01*
X203364285Y-66850000D01*
X203316666Y-66754761D01*
X203221428Y-65183333D02*
X203221428Y-65516666D01*
X202697619Y-65516666D02*
X203697619Y-65516666D01*
X203697619Y-65040476D01*
X202983333Y-64707142D02*
X202983333Y-64230952D01*
X202697619Y-64802380D02*
X203697619Y-64469047D01*
X202697619Y-64135714D01*
X202697619Y-63802380D02*
X203697619Y-63802380D01*
X202697619Y-63230952D01*
X203697619Y-63230952D01*
X203602380Y-62040476D02*
X203650000Y-61992857D01*
X203697619Y-61897619D01*
X203697619Y-61659523D01*
X203650000Y-61564285D01*
X203602380Y-61516666D01*
X203507142Y-61469047D01*
X203411904Y-61469047D01*
X203269047Y-61516666D01*
X202697619Y-62088095D01*
X202697619Y-61469047D01*
X85271428Y-71078571D02*
X85271428Y-70745238D01*
X84747619Y-70602380D02*
X84747619Y-71078571D01*
X85747619Y-71078571D01*
X85747619Y-70602380D01*
X85414285Y-70173809D02*
X84747619Y-70173809D01*
X85319047Y-70173809D02*
X85366666Y-70126190D01*
X85414285Y-70030952D01*
X85414285Y-69888095D01*
X85366666Y-69792857D01*
X85271428Y-69745238D01*
X84747619Y-69745238D01*
X84747619Y-68840476D02*
X85747619Y-68840476D01*
X84795238Y-68840476D02*
X84747619Y-68935714D01*
X84747619Y-69126190D01*
X84795238Y-69221428D01*
X84842857Y-69269047D01*
X84938095Y-69316666D01*
X85223809Y-69316666D01*
X85319047Y-69269047D01*
X85366666Y-69221428D01*
X85414285Y-69126190D01*
X85414285Y-68935714D01*
X85366666Y-68840476D01*
X84795238Y-68411904D02*
X84747619Y-68316666D01*
X84747619Y-68126190D01*
X84795238Y-68030952D01*
X84890476Y-67983333D01*
X84938095Y-67983333D01*
X85033333Y-68030952D01*
X85080952Y-68126190D01*
X85080952Y-68269047D01*
X85128571Y-68364285D01*
X85223809Y-68411904D01*
X85271428Y-68411904D01*
X85366666Y-68364285D01*
X85414285Y-68269047D01*
X85414285Y-68126190D01*
X85366666Y-68030952D01*
X85414285Y-67697619D02*
X85414285Y-67316666D01*
X85747619Y-67554761D02*
X84890476Y-67554761D01*
X84795238Y-67507142D01*
X84747619Y-67411904D01*
X84747619Y-67316666D01*
X84747619Y-66840476D02*
X84795238Y-66935714D01*
X84842857Y-66983333D01*
X84938095Y-67030952D01*
X85223809Y-67030952D01*
X85319047Y-66983333D01*
X85366666Y-66935714D01*
X85414285Y-66840476D01*
X85414285Y-66697619D01*
X85366666Y-66602380D01*
X85319047Y-66554761D01*
X85223809Y-66507142D01*
X84938095Y-66507142D01*
X84842857Y-66554761D01*
X84795238Y-66602380D01*
X84747619Y-66697619D01*
X84747619Y-66840476D01*
X85414285Y-66078571D02*
X84414285Y-66078571D01*
X85366666Y-66078571D02*
X85414285Y-65983333D01*
X85414285Y-65792857D01*
X85366666Y-65697619D01*
X85319047Y-65650000D01*
X85223809Y-65602380D01*
X84938095Y-65602380D01*
X84842857Y-65650000D01*
X84795238Y-65697619D01*
X84747619Y-65792857D01*
X84747619Y-65983333D01*
X84795238Y-66078571D01*
X84747619Y-63888095D02*
X84747619Y-64459523D01*
X84747619Y-64173809D02*
X85747619Y-64173809D01*
X85604761Y-64269047D01*
X85509523Y-64364285D01*
X85461904Y-64459523D01*
X84652380Y-63697619D02*
X84652380Y-62935714D01*
X84747619Y-62173809D02*
X84747619Y-62745238D01*
X84747619Y-62459523D02*
X85747619Y-62459523D01*
X85604761Y-62554761D01*
X85509523Y-62650000D01*
X85461904Y-62745238D01*
X64647619Y-70402380D02*
X64647619Y-69402380D01*
X64647619Y-69878571D02*
X64076190Y-69878571D01*
X64076190Y-70402380D02*
X64076190Y-69402380D01*
X63219047Y-70354761D02*
X63314285Y-70402380D01*
X63504761Y-70402380D01*
X63600000Y-70354761D01*
X63647619Y-70259523D01*
X63647619Y-69878571D01*
X63600000Y-69783333D01*
X63504761Y-69735714D01*
X63314285Y-69735714D01*
X63219047Y-69783333D01*
X63171428Y-69878571D01*
X63171428Y-69973809D01*
X63647619Y-70069047D01*
X62314285Y-70402380D02*
X62314285Y-69878571D01*
X62361904Y-69783333D01*
X62457142Y-69735714D01*
X62647619Y-69735714D01*
X62742857Y-69783333D01*
X62314285Y-70354761D02*
X62409523Y-70402380D01*
X62647619Y-70402380D01*
X62742857Y-70354761D01*
X62790476Y-70259523D01*
X62790476Y-70164285D01*
X62742857Y-70069047D01*
X62647619Y-70021428D01*
X62409523Y-70021428D01*
X62314285Y-69973809D01*
X61980952Y-69735714D02*
X61600000Y-69735714D01*
X61838095Y-69402380D02*
X61838095Y-70259523D01*
X61790476Y-70354761D01*
X61695238Y-70402380D01*
X61600000Y-70402380D01*
X60885714Y-70354761D02*
X60980952Y-70402380D01*
X61171428Y-70402380D01*
X61266666Y-70354761D01*
X61314285Y-70259523D01*
X61314285Y-69878571D01*
X61266666Y-69783333D01*
X61171428Y-69735714D01*
X60980952Y-69735714D01*
X60885714Y-69783333D01*
X60838095Y-69878571D01*
X60838095Y-69973809D01*
X61314285Y-70069047D01*
X60409523Y-70402380D02*
X60409523Y-69735714D01*
X60409523Y-69926190D02*
X60361904Y-69830952D01*
X60314285Y-69783333D01*
X60219047Y-69735714D01*
X60123809Y-69735714D01*
X58504761Y-70402380D02*
X59076190Y-70402380D01*
X58790476Y-70402380D02*
X58790476Y-69402380D01*
X58885714Y-69545238D01*
X58980952Y-69640476D01*
X59076190Y-69688095D01*
X99297619Y-71133333D02*
X100297619Y-71133333D01*
X100297619Y-70752380D01*
X100250000Y-70657142D01*
X100202380Y-70609523D01*
X100107142Y-70561904D01*
X99964285Y-70561904D01*
X99869047Y-70609523D01*
X99821428Y-70657142D01*
X99773809Y-70752380D01*
X99773809Y-71133333D01*
X99297619Y-69704761D02*
X99821428Y-69704761D01*
X99916666Y-69752380D01*
X99964285Y-69847619D01*
X99964285Y-70038095D01*
X99916666Y-70133333D01*
X99345238Y-69704761D02*
X99297619Y-69800000D01*
X99297619Y-70038095D01*
X99345238Y-70133333D01*
X99440476Y-70180952D01*
X99535714Y-70180952D01*
X99630952Y-70133333D01*
X99678571Y-70038095D01*
X99678571Y-69800000D01*
X99726190Y-69704761D01*
X99297619Y-69228571D02*
X99964285Y-69228571D01*
X99773809Y-69228571D02*
X99869047Y-69180952D01*
X99916666Y-69133333D01*
X99964285Y-69038095D01*
X99964285Y-68942857D01*
X99964285Y-68752380D02*
X99964285Y-68371428D01*
X100297619Y-68609523D02*
X99440476Y-68609523D01*
X99345238Y-68561904D01*
X99297619Y-68466666D01*
X99297619Y-68371428D01*
X99345238Y-68085714D02*
X99297619Y-67990476D01*
X99297619Y-67800000D01*
X99345238Y-67704761D01*
X99440476Y-67657142D01*
X99488095Y-67657142D01*
X99583333Y-67704761D01*
X99630952Y-67800000D01*
X99630952Y-67942857D01*
X99678571Y-68038095D01*
X99773809Y-68085714D01*
X99821428Y-68085714D01*
X99916666Y-68038095D01*
X99964285Y-67942857D01*
X99964285Y-67800000D01*
X99916666Y-67704761D01*
X99821428Y-66133333D02*
X99821428Y-66466666D01*
X99297619Y-66466666D02*
X100297619Y-66466666D01*
X100297619Y-65990476D01*
X99583333Y-65657142D02*
X99583333Y-65180952D01*
X99297619Y-65752380D02*
X100297619Y-65419047D01*
X99297619Y-65085714D01*
X99297619Y-64752380D02*
X100297619Y-64752380D01*
X99297619Y-64180952D01*
X100297619Y-64180952D01*
X99297619Y-62419047D02*
X99297619Y-62990476D01*
X99297619Y-62704761D02*
X100297619Y-62704761D01*
X100154761Y-62800000D01*
X100059523Y-62895238D01*
X100011904Y-62990476D01*
X223221428Y-70928571D02*
X223221428Y-70595238D01*
X222697619Y-70452380D02*
X222697619Y-70928571D01*
X223697619Y-70928571D01*
X223697619Y-70452380D01*
X223364285Y-70023809D02*
X222697619Y-70023809D01*
X223269047Y-70023809D02*
X223316666Y-69976190D01*
X223364285Y-69880952D01*
X223364285Y-69738095D01*
X223316666Y-69642857D01*
X223221428Y-69595238D01*
X222697619Y-69595238D01*
X222697619Y-68690476D02*
X223697619Y-68690476D01*
X222745238Y-68690476D02*
X222697619Y-68785714D01*
X222697619Y-68976190D01*
X222745238Y-69071428D01*
X222792857Y-69119047D01*
X222888095Y-69166666D01*
X223173809Y-69166666D01*
X223269047Y-69119047D01*
X223316666Y-69071428D01*
X223364285Y-68976190D01*
X223364285Y-68785714D01*
X223316666Y-68690476D01*
X222745238Y-68261904D02*
X222697619Y-68166666D01*
X222697619Y-67976190D01*
X222745238Y-67880952D01*
X222840476Y-67833333D01*
X222888095Y-67833333D01*
X222983333Y-67880952D01*
X223030952Y-67976190D01*
X223030952Y-68119047D01*
X223078571Y-68214285D01*
X223173809Y-68261904D01*
X223221428Y-68261904D01*
X223316666Y-68214285D01*
X223364285Y-68119047D01*
X223364285Y-67976190D01*
X223316666Y-67880952D01*
X223364285Y-67547619D02*
X223364285Y-67166666D01*
X223697619Y-67404761D02*
X222840476Y-67404761D01*
X222745238Y-67357142D01*
X222697619Y-67261904D01*
X222697619Y-67166666D01*
X222697619Y-66690476D02*
X222745238Y-66785714D01*
X222792857Y-66833333D01*
X222888095Y-66880952D01*
X223173809Y-66880952D01*
X223269047Y-66833333D01*
X223316666Y-66785714D01*
X223364285Y-66690476D01*
X223364285Y-66547619D01*
X223316666Y-66452380D01*
X223269047Y-66404761D01*
X223173809Y-66357142D01*
X222888095Y-66357142D01*
X222792857Y-66404761D01*
X222745238Y-66452380D01*
X222697619Y-66547619D01*
X222697619Y-66690476D01*
X223364285Y-65928571D02*
X222364285Y-65928571D01*
X223316666Y-65928571D02*
X223364285Y-65833333D01*
X223364285Y-65642857D01*
X223316666Y-65547619D01*
X223269047Y-65500000D01*
X223173809Y-65452380D01*
X222888095Y-65452380D01*
X222792857Y-65500000D01*
X222745238Y-65547619D01*
X222697619Y-65642857D01*
X222697619Y-65833333D01*
X222745238Y-65928571D01*
X223697619Y-64071428D02*
X223697619Y-63976190D01*
X223650000Y-63880952D01*
X223602380Y-63833333D01*
X223507142Y-63785714D01*
X223316666Y-63738095D01*
X223078571Y-63738095D01*
X222888095Y-63785714D01*
X222792857Y-63833333D01*
X222745238Y-63880952D01*
X222697619Y-63976190D01*
X222697619Y-64071428D01*
X222745238Y-64166666D01*
X222792857Y-64214285D01*
X222888095Y-64261904D01*
X223078571Y-64309523D01*
X223316666Y-64309523D01*
X223507142Y-64261904D01*
X223602380Y-64214285D01*
X223650000Y-64166666D01*
X223697619Y-64071428D01*
X222602380Y-63547619D02*
X222602380Y-62785714D01*
X223602380Y-62595238D02*
X223650000Y-62547619D01*
X223697619Y-62452380D01*
X223697619Y-62214285D01*
X223650000Y-62119047D01*
X223602380Y-62071428D01*
X223507142Y-62023809D01*
X223411904Y-62023809D01*
X223269047Y-62071428D01*
X222697619Y-62642857D01*
X222697619Y-62023809D01*
X228847619Y-71009523D02*
X229847619Y-71009523D01*
X228847619Y-70438095D01*
X229847619Y-70438095D01*
X228895238Y-69580952D02*
X228847619Y-69676190D01*
X228847619Y-69866666D01*
X228895238Y-69961904D01*
X228990476Y-70009523D01*
X229371428Y-70009523D01*
X229466666Y-69961904D01*
X229514285Y-69866666D01*
X229514285Y-69676190D01*
X229466666Y-69580952D01*
X229371428Y-69533333D01*
X229276190Y-69533333D01*
X229180952Y-70009523D01*
X228847619Y-68961904D02*
X228895238Y-69057142D01*
X228942857Y-69104761D01*
X229038095Y-69152380D01*
X229323809Y-69152380D01*
X229419047Y-69104761D01*
X229466666Y-69057142D01*
X229514285Y-68961904D01*
X229514285Y-68819047D01*
X229466666Y-68723809D01*
X229419047Y-68676190D01*
X229323809Y-68628571D01*
X229038095Y-68628571D01*
X228942857Y-68676190D01*
X228895238Y-68723809D01*
X228847619Y-68819047D01*
X228847619Y-68961904D01*
X229514285Y-68200000D02*
X228514285Y-68200000D01*
X229466666Y-68200000D02*
X229514285Y-68104761D01*
X229514285Y-67914285D01*
X229466666Y-67819047D01*
X229419047Y-67771428D01*
X229323809Y-67723809D01*
X229038095Y-67723809D01*
X228942857Y-67771428D01*
X228895238Y-67819047D01*
X228847619Y-67914285D01*
X228847619Y-68104761D01*
X228895238Y-68200000D01*
X228847619Y-67295238D02*
X229514285Y-67295238D01*
X229847619Y-67295238D02*
X229800000Y-67342857D01*
X229752380Y-67295238D01*
X229800000Y-67247619D01*
X229847619Y-67295238D01*
X229752380Y-67295238D01*
X228847619Y-66914285D02*
X229514285Y-66390476D01*
X229514285Y-66914285D02*
X228847619Y-66390476D01*
X228895238Y-65628571D02*
X228847619Y-65723809D01*
X228847619Y-65914285D01*
X228895238Y-66009523D01*
X228990476Y-66057142D01*
X229371428Y-66057142D01*
X229466666Y-66009523D01*
X229514285Y-65914285D01*
X229514285Y-65723809D01*
X229466666Y-65628571D01*
X229371428Y-65580952D01*
X229276190Y-65580952D01*
X229180952Y-66057142D01*
X228847619Y-65009523D02*
X228895238Y-65104761D01*
X228990476Y-65152380D01*
X229847619Y-65152380D01*
X229752380Y-63914285D02*
X229800000Y-63866666D01*
X229847619Y-63771428D01*
X229847619Y-63533333D01*
X229800000Y-63438095D01*
X229752380Y-63390476D01*
X229657142Y-63342857D01*
X229561904Y-63342857D01*
X229419047Y-63390476D01*
X228847619Y-63961904D01*
X228847619Y-63342857D01*
X241147619Y-70252380D02*
X241147619Y-69252380D01*
X241147619Y-69728571D02*
X240576190Y-69728571D01*
X240576190Y-70252380D02*
X240576190Y-69252380D01*
X239719047Y-70204761D02*
X239814285Y-70252380D01*
X240004761Y-70252380D01*
X240100000Y-70204761D01*
X240147619Y-70109523D01*
X240147619Y-69728571D01*
X240100000Y-69633333D01*
X240004761Y-69585714D01*
X239814285Y-69585714D01*
X239719047Y-69633333D01*
X239671428Y-69728571D01*
X239671428Y-69823809D01*
X240147619Y-69919047D01*
X238814285Y-70252380D02*
X238814285Y-69728571D01*
X238861904Y-69633333D01*
X238957142Y-69585714D01*
X239147619Y-69585714D01*
X239242857Y-69633333D01*
X238814285Y-70204761D02*
X238909523Y-70252380D01*
X239147619Y-70252380D01*
X239242857Y-70204761D01*
X239290476Y-70109523D01*
X239290476Y-70014285D01*
X239242857Y-69919047D01*
X239147619Y-69871428D01*
X238909523Y-69871428D01*
X238814285Y-69823809D01*
X238480952Y-69585714D02*
X238100000Y-69585714D01*
X238338095Y-69252380D02*
X238338095Y-70109523D01*
X238290476Y-70204761D01*
X238195238Y-70252380D01*
X238100000Y-70252380D01*
X237385714Y-70204761D02*
X237480952Y-70252380D01*
X237671428Y-70252380D01*
X237766666Y-70204761D01*
X237814285Y-70109523D01*
X237814285Y-69728571D01*
X237766666Y-69633333D01*
X237671428Y-69585714D01*
X237480952Y-69585714D01*
X237385714Y-69633333D01*
X237338095Y-69728571D01*
X237338095Y-69823809D01*
X237814285Y-69919047D01*
X236909523Y-70252380D02*
X236909523Y-69585714D01*
X236909523Y-69776190D02*
X236861904Y-69680952D01*
X236814285Y-69633333D01*
X236719047Y-69585714D01*
X236623809Y-69585714D01*
X235576190Y-69347619D02*
X235528571Y-69300000D01*
X235433333Y-69252380D01*
X235195238Y-69252380D01*
X235100000Y-69300000D01*
X235052380Y-69347619D01*
X235004761Y-69442857D01*
X235004761Y-69538095D01*
X235052380Y-69680952D01*
X235623809Y-70252380D01*
X235004761Y-70252380D01*
X107864285Y-89978571D02*
X107530952Y-89978571D01*
X107388095Y-90502380D02*
X107864285Y-90502380D01*
X107864285Y-89502380D01*
X107388095Y-89502380D01*
X107054761Y-90502380D02*
X106530952Y-89835714D01*
X107054761Y-89835714D02*
X106530952Y-90502380D01*
X106292857Y-89835714D02*
X105911904Y-89835714D01*
X106150000Y-89502380D02*
X106150000Y-90359523D01*
X106102380Y-90454761D01*
X106007142Y-90502380D01*
X105911904Y-90502380D01*
X105578571Y-90502380D02*
X105578571Y-89835714D01*
X105578571Y-90026190D02*
X105530952Y-89930952D01*
X105483333Y-89883333D01*
X105388095Y-89835714D01*
X105292857Y-89835714D01*
X104530952Y-89835714D02*
X104530952Y-90502380D01*
X104959523Y-89835714D02*
X104959523Y-90359523D01*
X104911904Y-90454761D01*
X104816666Y-90502380D01*
X104673809Y-90502380D01*
X104578571Y-90454761D01*
X104530952Y-90407142D01*
X103626190Y-90502380D02*
X103626190Y-89502380D01*
X103626190Y-90454761D02*
X103721428Y-90502380D01*
X103911904Y-90502380D01*
X104007142Y-90454761D01*
X104054761Y-90407142D01*
X104102380Y-90311904D01*
X104102380Y-90026190D01*
X104054761Y-89930952D01*
X104007142Y-89883333D01*
X103911904Y-89835714D01*
X103721428Y-89835714D01*
X103626190Y-89883333D01*
X102769047Y-90454761D02*
X102864285Y-90502380D01*
X103054761Y-90502380D01*
X103150000Y-90454761D01*
X103197619Y-90359523D01*
X103197619Y-89978571D01*
X103150000Y-89883333D01*
X103054761Y-89835714D01*
X102864285Y-89835714D01*
X102769047Y-89883333D01*
X102721428Y-89978571D01*
X102721428Y-90073809D01*
X103197619Y-90169047D01*
X102292857Y-90502380D02*
X102292857Y-89835714D01*
X102292857Y-90026190D02*
X102245238Y-89930952D01*
X102197619Y-89883333D01*
X102102380Y-89835714D01*
X102007142Y-89835714D01*
X100388095Y-90502380D02*
X100959523Y-90502380D01*
X100673809Y-90502380D02*
X100673809Y-89502380D01*
X100769047Y-89645238D01*
X100864285Y-89740476D01*
X100959523Y-89788095D01*
X197847619Y-70490476D02*
X197847619Y-69919047D01*
X196847619Y-70204761D02*
X197847619Y-70204761D01*
X196847619Y-69585714D02*
X197847619Y-69585714D01*
X196847619Y-69157142D02*
X197371428Y-69157142D01*
X197466666Y-69204761D01*
X197514285Y-69300000D01*
X197514285Y-69442857D01*
X197466666Y-69538095D01*
X197419047Y-69585714D01*
X196895238Y-68300000D02*
X196847619Y-68395238D01*
X196847619Y-68585714D01*
X196895238Y-68680952D01*
X196990476Y-68728571D01*
X197371428Y-68728571D01*
X197466666Y-68680952D01*
X197514285Y-68585714D01*
X197514285Y-68395238D01*
X197466666Y-68300000D01*
X197371428Y-68252380D01*
X197276190Y-68252380D01*
X197180952Y-68728571D01*
X196847619Y-67823809D02*
X197514285Y-67823809D01*
X197323809Y-67823809D02*
X197419047Y-67776190D01*
X197466666Y-67728571D01*
X197514285Y-67633333D01*
X197514285Y-67538095D01*
X196847619Y-67204761D02*
X197514285Y-67204761D01*
X197419047Y-67204761D02*
X197466666Y-67157142D01*
X197514285Y-67061904D01*
X197514285Y-66919047D01*
X197466666Y-66823809D01*
X197371428Y-66776190D01*
X196847619Y-66776190D01*
X197371428Y-66776190D02*
X197466666Y-66728571D01*
X197514285Y-66633333D01*
X197514285Y-66490476D01*
X197466666Y-66395238D01*
X197371428Y-66347619D01*
X196847619Y-66347619D01*
X196847619Y-65871428D02*
X197514285Y-65871428D01*
X197847619Y-65871428D02*
X197800000Y-65919047D01*
X197752380Y-65871428D01*
X197800000Y-65823809D01*
X197847619Y-65871428D01*
X197752380Y-65871428D01*
X196895238Y-65442857D02*
X196847619Y-65347619D01*
X196847619Y-65157142D01*
X196895238Y-65061904D01*
X196990476Y-65014285D01*
X197038095Y-65014285D01*
X197133333Y-65061904D01*
X197180952Y-65157142D01*
X197180952Y-65300000D01*
X197228571Y-65395238D01*
X197323809Y-65442857D01*
X197371428Y-65442857D01*
X197466666Y-65395238D01*
X197514285Y-65300000D01*
X197514285Y-65157142D01*
X197466666Y-65061904D01*
X197514285Y-64728571D02*
X197514285Y-64347619D01*
X197847619Y-64585714D02*
X196990476Y-64585714D01*
X196895238Y-64538095D01*
X196847619Y-64442857D01*
X196847619Y-64347619D01*
X196847619Y-63871428D02*
X196895238Y-63966666D01*
X196942857Y-64014285D01*
X197038095Y-64061904D01*
X197323809Y-64061904D01*
X197419047Y-64014285D01*
X197466666Y-63966666D01*
X197514285Y-63871428D01*
X197514285Y-63728571D01*
X197466666Y-63633333D01*
X197419047Y-63585714D01*
X197323809Y-63538095D01*
X197038095Y-63538095D01*
X196942857Y-63585714D01*
X196895238Y-63633333D01*
X196847619Y-63728571D01*
X196847619Y-63871428D01*
X196847619Y-63109523D02*
X197514285Y-63109523D01*
X197323809Y-63109523D02*
X197419047Y-63061904D01*
X197466666Y-63014285D01*
X197514285Y-62919047D01*
X197514285Y-62823809D01*
X197752380Y-61776190D02*
X197800000Y-61728571D01*
X197847619Y-61633333D01*
X197847619Y-61395238D01*
X197800000Y-61300000D01*
X197752380Y-61252380D01*
X197657142Y-61204761D01*
X197561904Y-61204761D01*
X197419047Y-61252380D01*
X196847619Y-61823809D01*
X196847619Y-61204761D01*
X186571428Y-93271428D02*
X185809523Y-93271428D01*
X186190476Y-93652380D02*
X186190476Y-92890476D01*
X184857142Y-92652380D02*
X185333333Y-92652380D01*
X185380952Y-93128571D01*
X185333333Y-93080952D01*
X185238095Y-93033333D01*
X185000000Y-93033333D01*
X184904761Y-93080952D01*
X184857142Y-93128571D01*
X184809523Y-93223809D01*
X184809523Y-93461904D01*
X184857142Y-93557142D01*
X184904761Y-93604761D01*
X185000000Y-93652380D01*
X185238095Y-93652380D01*
X185333333Y-93604761D01*
X185380952Y-93557142D01*
X184523809Y-92652380D02*
X184190476Y-93652380D01*
X183857142Y-92652380D01*
X181476190Y-92700000D02*
X181571428Y-92652380D01*
X181714285Y-92652380D01*
X181857142Y-92700000D01*
X181952380Y-92795238D01*
X182000000Y-92890476D01*
X182047619Y-93080952D01*
X182047619Y-93223809D01*
X182000000Y-93414285D01*
X181952380Y-93509523D01*
X181857142Y-93604761D01*
X181714285Y-93652380D01*
X181619047Y-93652380D01*
X181476190Y-93604761D01*
X181428571Y-93557142D01*
X181428571Y-93223809D01*
X181619047Y-93223809D01*
X181000000Y-93652380D02*
X181000000Y-92652380D01*
X180428571Y-93652380D01*
X180428571Y-92652380D01*
X179952380Y-93652380D02*
X179952380Y-92652380D01*
X179714285Y-92652380D01*
X179571428Y-92700000D01*
X179476190Y-92795238D01*
X179428571Y-92890476D01*
X179380952Y-93080952D01*
X179380952Y-93223809D01*
X179428571Y-93414285D01*
X179476190Y-93509523D01*
X179571428Y-93604761D01*
X179714285Y-93652380D01*
X179952380Y-93652380D01*
X203914285Y-90728571D02*
X203580952Y-90728571D01*
X203438095Y-91252380D02*
X203914285Y-91252380D01*
X203914285Y-90252380D01*
X203438095Y-90252380D01*
X203104761Y-91252380D02*
X202580952Y-90585714D01*
X203104761Y-90585714D02*
X202580952Y-91252380D01*
X202342857Y-90585714D02*
X201961904Y-90585714D01*
X202200000Y-90252380D02*
X202200000Y-91109523D01*
X202152380Y-91204761D01*
X202057142Y-91252380D01*
X201961904Y-91252380D01*
X201628571Y-91252380D02*
X201628571Y-90585714D01*
X201628571Y-90776190D02*
X201580952Y-90680952D01*
X201533333Y-90633333D01*
X201438095Y-90585714D01*
X201342857Y-90585714D01*
X200580952Y-90585714D02*
X200580952Y-91252380D01*
X201009523Y-90585714D02*
X201009523Y-91109523D01*
X200961904Y-91204761D01*
X200866666Y-91252380D01*
X200723809Y-91252380D01*
X200628571Y-91204761D01*
X200580952Y-91157142D01*
X199676190Y-91252380D02*
X199676190Y-90252380D01*
X199676190Y-91204761D02*
X199771428Y-91252380D01*
X199961904Y-91252380D01*
X200057142Y-91204761D01*
X200104761Y-91157142D01*
X200152380Y-91061904D01*
X200152380Y-90776190D01*
X200104761Y-90680952D01*
X200057142Y-90633333D01*
X199961904Y-90585714D01*
X199771428Y-90585714D01*
X199676190Y-90633333D01*
X198819047Y-91204761D02*
X198914285Y-91252380D01*
X199104761Y-91252380D01*
X199200000Y-91204761D01*
X199247619Y-91109523D01*
X199247619Y-90728571D01*
X199200000Y-90633333D01*
X199104761Y-90585714D01*
X198914285Y-90585714D01*
X198819047Y-90633333D01*
X198771428Y-90728571D01*
X198771428Y-90823809D01*
X199247619Y-90919047D01*
X198342857Y-91252380D02*
X198342857Y-90585714D01*
X198342857Y-90776190D02*
X198295238Y-90680952D01*
X198247619Y-90633333D01*
X198152380Y-90585714D01*
X198057142Y-90585714D01*
X197009523Y-90347619D02*
X196961904Y-90300000D01*
X196866666Y-90252380D01*
X196628571Y-90252380D01*
X196533333Y-90300000D01*
X196485714Y-90347619D01*
X196438095Y-90442857D01*
X196438095Y-90538095D01*
X196485714Y-90680952D01*
X197057142Y-91252380D01*
X196438095Y-91252380D01*
X216921428Y-70878571D02*
X216921428Y-70545238D01*
X216397619Y-70402380D02*
X216397619Y-70878571D01*
X217397619Y-70878571D01*
X217397619Y-70402380D01*
X217064285Y-69973809D02*
X216397619Y-69973809D01*
X216969047Y-69973809D02*
X217016666Y-69926190D01*
X217064285Y-69830952D01*
X217064285Y-69688095D01*
X217016666Y-69592857D01*
X216921428Y-69545238D01*
X216397619Y-69545238D01*
X216397619Y-68640476D02*
X217397619Y-68640476D01*
X216445238Y-68640476D02*
X216397619Y-68735714D01*
X216397619Y-68926190D01*
X216445238Y-69021428D01*
X216492857Y-69069047D01*
X216588095Y-69116666D01*
X216873809Y-69116666D01*
X216969047Y-69069047D01*
X217016666Y-69021428D01*
X217064285Y-68926190D01*
X217064285Y-68735714D01*
X217016666Y-68640476D01*
X216445238Y-68211904D02*
X216397619Y-68116666D01*
X216397619Y-67926190D01*
X216445238Y-67830952D01*
X216540476Y-67783333D01*
X216588095Y-67783333D01*
X216683333Y-67830952D01*
X216730952Y-67926190D01*
X216730952Y-68069047D01*
X216778571Y-68164285D01*
X216873809Y-68211904D01*
X216921428Y-68211904D01*
X217016666Y-68164285D01*
X217064285Y-68069047D01*
X217064285Y-67926190D01*
X217016666Y-67830952D01*
X217064285Y-67497619D02*
X217064285Y-67116666D01*
X217397619Y-67354761D02*
X216540476Y-67354761D01*
X216445238Y-67307142D01*
X216397619Y-67211904D01*
X216397619Y-67116666D01*
X216397619Y-66640476D02*
X216445238Y-66735714D01*
X216492857Y-66783333D01*
X216588095Y-66830952D01*
X216873809Y-66830952D01*
X216969047Y-66783333D01*
X217016666Y-66735714D01*
X217064285Y-66640476D01*
X217064285Y-66497619D01*
X217016666Y-66402380D01*
X216969047Y-66354761D01*
X216873809Y-66307142D01*
X216588095Y-66307142D01*
X216492857Y-66354761D01*
X216445238Y-66402380D01*
X216397619Y-66497619D01*
X216397619Y-66640476D01*
X217064285Y-65878571D02*
X216064285Y-65878571D01*
X217016666Y-65878571D02*
X217064285Y-65783333D01*
X217064285Y-65592857D01*
X217016666Y-65497619D01*
X216969047Y-65450000D01*
X216873809Y-65402380D01*
X216588095Y-65402380D01*
X216492857Y-65450000D01*
X216445238Y-65497619D01*
X216397619Y-65592857D01*
X216397619Y-65783333D01*
X216445238Y-65878571D01*
X216397619Y-63688095D02*
X216397619Y-64259523D01*
X216397619Y-63973809D02*
X217397619Y-63973809D01*
X217254761Y-64069047D01*
X217159523Y-64164285D01*
X217111904Y-64259523D01*
X216302380Y-63497619D02*
X216302380Y-62735714D01*
X217302380Y-62545238D02*
X217350000Y-62497619D01*
X217397619Y-62402380D01*
X217397619Y-62164285D01*
X217350000Y-62069047D01*
X217302380Y-62021428D01*
X217207142Y-61973809D01*
X217111904Y-61973809D01*
X216969047Y-62021428D01*
X216397619Y-62592857D01*
X216397619Y-61973809D01*
X70597619Y-70409523D02*
X71597619Y-70409523D01*
X70597619Y-69838095D01*
X71597619Y-69838095D01*
X70645238Y-68980952D02*
X70597619Y-69076190D01*
X70597619Y-69266666D01*
X70645238Y-69361904D01*
X70740476Y-69409523D01*
X71121428Y-69409523D01*
X71216666Y-69361904D01*
X71264285Y-69266666D01*
X71264285Y-69076190D01*
X71216666Y-68980952D01*
X71121428Y-68933333D01*
X71026190Y-68933333D01*
X70930952Y-69409523D01*
X70597619Y-68361904D02*
X70645238Y-68457142D01*
X70692857Y-68504761D01*
X70788095Y-68552380D01*
X71073809Y-68552380D01*
X71169047Y-68504761D01*
X71216666Y-68457142D01*
X71264285Y-68361904D01*
X71264285Y-68219047D01*
X71216666Y-68123809D01*
X71169047Y-68076190D01*
X71073809Y-68028571D01*
X70788095Y-68028571D01*
X70692857Y-68076190D01*
X70645238Y-68123809D01*
X70597619Y-68219047D01*
X70597619Y-68361904D01*
X71264285Y-67600000D02*
X70264285Y-67600000D01*
X71216666Y-67600000D02*
X71264285Y-67504761D01*
X71264285Y-67314285D01*
X71216666Y-67219047D01*
X71169047Y-67171428D01*
X71073809Y-67123809D01*
X70788095Y-67123809D01*
X70692857Y-67171428D01*
X70645238Y-67219047D01*
X70597619Y-67314285D01*
X70597619Y-67504761D01*
X70645238Y-67600000D01*
X70597619Y-66695238D02*
X71264285Y-66695238D01*
X71597619Y-66695238D02*
X71550000Y-66742857D01*
X71502380Y-66695238D01*
X71550000Y-66647619D01*
X71597619Y-66695238D01*
X71502380Y-66695238D01*
X70597619Y-66314285D02*
X71264285Y-65790476D01*
X71264285Y-66314285D02*
X70597619Y-65790476D01*
X70645238Y-65028571D02*
X70597619Y-65123809D01*
X70597619Y-65314285D01*
X70645238Y-65409523D01*
X70740476Y-65457142D01*
X71121428Y-65457142D01*
X71216666Y-65409523D01*
X71264285Y-65314285D01*
X71264285Y-65123809D01*
X71216666Y-65028571D01*
X71121428Y-64980952D01*
X71026190Y-64980952D01*
X70930952Y-65457142D01*
X70597619Y-64409523D02*
X70645238Y-64504761D01*
X70740476Y-64552380D01*
X71597619Y-64552380D01*
X70597619Y-62742857D02*
X70597619Y-63314285D01*
X70597619Y-63028571D02*
X71597619Y-63028571D01*
X71454761Y-63123809D01*
X71359523Y-63219047D01*
X71311904Y-63314285D01*
X98873809Y-93902380D02*
X99350000Y-93902380D01*
X99350000Y-92902380D01*
X98540476Y-93378571D02*
X98207142Y-93378571D01*
X98064285Y-93902380D02*
X98540476Y-93902380D01*
X98540476Y-92902380D01*
X98064285Y-92902380D01*
X97635714Y-93902380D02*
X97635714Y-92902380D01*
X97397619Y-92902380D01*
X97254761Y-92950000D01*
X97159523Y-93045238D01*
X97111904Y-93140476D01*
X97064285Y-93330952D01*
X97064285Y-93473809D01*
X97111904Y-93664285D01*
X97159523Y-93759523D01*
X97254761Y-93854761D01*
X97397619Y-93902380D01*
X97635714Y-93902380D01*
X95588095Y-94283333D02*
X95635714Y-94235714D01*
X95730952Y-94092857D01*
X95778571Y-93997619D01*
X95826190Y-93854761D01*
X95873809Y-93616666D01*
X95873809Y-93426190D01*
X95826190Y-93188095D01*
X95778571Y-93045238D01*
X95730952Y-92950000D01*
X95635714Y-92807142D01*
X95588095Y-92759523D01*
X94730952Y-92902380D02*
X95207142Y-92902380D01*
X95254761Y-93378571D01*
X95207142Y-93330952D01*
X95111904Y-93283333D01*
X94873809Y-93283333D01*
X94778571Y-93330952D01*
X94730952Y-93378571D01*
X94683333Y-93473809D01*
X94683333Y-93711904D01*
X94730952Y-93807142D01*
X94778571Y-93854761D01*
X94873809Y-93902380D01*
X95111904Y-93902380D01*
X95207142Y-93854761D01*
X95254761Y-93807142D01*
X94350000Y-93235714D02*
X94111904Y-93902380D01*
X93873809Y-93235714D01*
X93492857Y-93807142D02*
X93445238Y-93854761D01*
X93492857Y-93902380D01*
X93540476Y-93854761D01*
X93492857Y-93807142D01*
X93492857Y-93902380D01*
X93492857Y-93283333D02*
X93445238Y-93330952D01*
X93492857Y-93378571D01*
X93540476Y-93330952D01*
X93492857Y-93283333D01*
X93492857Y-93378571D01*
X93064285Y-93854761D02*
X92921428Y-93902380D01*
X92683333Y-93902380D01*
X92588095Y-93854761D01*
X92540476Y-93807142D01*
X92492857Y-93711904D01*
X92492857Y-93616666D01*
X92540476Y-93521428D01*
X92588095Y-93473809D01*
X92683333Y-93426190D01*
X92873809Y-93378571D01*
X92969047Y-93330952D01*
X93016666Y-93283333D01*
X93064285Y-93188095D01*
X93064285Y-93092857D01*
X93016666Y-92997619D01*
X92969047Y-92950000D01*
X92873809Y-92902380D01*
X92635714Y-92902380D01*
X92492857Y-92950000D01*
X92064285Y-93807142D02*
X92016666Y-93854761D01*
X92064285Y-93902380D01*
X92111904Y-93854761D01*
X92064285Y-93807142D01*
X92064285Y-93902380D01*
X92064285Y-93283333D02*
X92016666Y-93330952D01*
X92064285Y-93378571D01*
X92111904Y-93330952D01*
X92064285Y-93283333D01*
X92064285Y-93378571D01*
X91064285Y-92950000D02*
X91159523Y-92902380D01*
X91302380Y-92902380D01*
X91445238Y-92950000D01*
X91540476Y-93045238D01*
X91588095Y-93140476D01*
X91635714Y-93330952D01*
X91635714Y-93473809D01*
X91588095Y-93664285D01*
X91540476Y-93759523D01*
X91445238Y-93854761D01*
X91302380Y-93902380D01*
X91207142Y-93902380D01*
X91064285Y-93854761D01*
X91016666Y-93807142D01*
X91016666Y-93473809D01*
X91207142Y-93473809D01*
X90588095Y-93902380D02*
X90588095Y-92902380D01*
X90016666Y-93902380D01*
X90016666Y-92902380D01*
X89540476Y-93902380D02*
X89540476Y-92902380D01*
X89302380Y-92902380D01*
X89159523Y-92950000D01*
X89064285Y-93045238D01*
X89016666Y-93140476D01*
X88969047Y-93330952D01*
X88969047Y-93473809D01*
X89016666Y-93664285D01*
X89064285Y-93759523D01*
X89159523Y-93854761D01*
X89302380Y-93902380D01*
X89540476Y-93902380D01*
X88635714Y-94283333D02*
X88588095Y-94235714D01*
X88492857Y-94092857D01*
X88445238Y-93997619D01*
X88397619Y-93854761D01*
X88350000Y-93616666D01*
X88350000Y-93426190D01*
X88397619Y-93188095D01*
X88445238Y-93045238D01*
X88492857Y-92950000D01*
X88588095Y-92807142D01*
X88635714Y-92759523D01*
X51966666Y-70057380D02*
X51966666Y-69057380D01*
X51585714Y-69057380D01*
X51490476Y-69105000D01*
X51442857Y-69152619D01*
X51395238Y-69247857D01*
X51395238Y-69390714D01*
X51442857Y-69485952D01*
X51490476Y-69533571D01*
X51585714Y-69581190D01*
X51966666Y-69581190D01*
X50538095Y-70057380D02*
X50538095Y-69533571D01*
X50585714Y-69438333D01*
X50680952Y-69390714D01*
X50871428Y-69390714D01*
X50966666Y-69438333D01*
X50538095Y-70009761D02*
X50633333Y-70057380D01*
X50871428Y-70057380D01*
X50966666Y-70009761D01*
X51014285Y-69914523D01*
X51014285Y-69819285D01*
X50966666Y-69724047D01*
X50871428Y-69676428D01*
X50633333Y-69676428D01*
X50538095Y-69628809D01*
X50061904Y-69390714D02*
X50061904Y-70057380D01*
X50061904Y-69485952D02*
X50014285Y-69438333D01*
X49919047Y-69390714D01*
X49776190Y-69390714D01*
X49680952Y-69438333D01*
X49633333Y-69533571D01*
X49633333Y-70057380D01*
X48728571Y-70009761D02*
X48823809Y-70057380D01*
X49014285Y-70057380D01*
X49109523Y-70009761D01*
X49157142Y-69962142D01*
X49204761Y-69866904D01*
X49204761Y-69581190D01*
X49157142Y-69485952D01*
X49109523Y-69438333D01*
X49014285Y-69390714D01*
X48823809Y-69390714D01*
X48728571Y-69438333D01*
X47871428Y-70057380D02*
X47871428Y-69533571D01*
X47919047Y-69438333D01*
X48014285Y-69390714D01*
X48204761Y-69390714D01*
X48300000Y-69438333D01*
X47871428Y-70009761D02*
X47966666Y-70057380D01*
X48204761Y-70057380D01*
X48300000Y-70009761D01*
X48347619Y-69914523D01*
X48347619Y-69819285D01*
X48300000Y-69724047D01*
X48204761Y-69676428D01*
X47966666Y-69676428D01*
X47871428Y-69628809D01*
X47395238Y-70057380D02*
X47395238Y-69057380D01*
X47300000Y-69676428D02*
X47014285Y-70057380D01*
X47014285Y-69390714D02*
X47395238Y-69771666D01*
X46204761Y-70009761D02*
X46300000Y-70057380D01*
X46490476Y-70057380D01*
X46585714Y-70009761D01*
X46633333Y-69914523D01*
X46633333Y-69533571D01*
X46585714Y-69438333D01*
X46490476Y-69390714D01*
X46300000Y-69390714D01*
X46204761Y-69438333D01*
X46157142Y-69533571D01*
X46157142Y-69628809D01*
X46633333Y-69724047D01*
X45728571Y-69676428D02*
X44966666Y-69676428D01*
X44157142Y-69533571D02*
X44014285Y-69581190D01*
X43966666Y-69628809D01*
X43919047Y-69724047D01*
X43919047Y-69866904D01*
X43966666Y-69962142D01*
X44014285Y-70009761D01*
X44109523Y-70057380D01*
X44490476Y-70057380D01*
X44490476Y-69057380D01*
X44157142Y-69057380D01*
X44061904Y-69105000D01*
X44014285Y-69152619D01*
X43966666Y-69247857D01*
X43966666Y-69343095D01*
X44014285Y-69438333D01*
X44061904Y-69485952D01*
X44157142Y-69533571D01*
X44490476Y-69533571D01*
X43347619Y-70057380D02*
X43442857Y-70009761D01*
X43490476Y-69962142D01*
X43538095Y-69866904D01*
X43538095Y-69581190D01*
X43490476Y-69485952D01*
X43442857Y-69438333D01*
X43347619Y-69390714D01*
X43204761Y-69390714D01*
X43109523Y-69438333D01*
X43061904Y-69485952D01*
X43014285Y-69581190D01*
X43014285Y-69866904D01*
X43061904Y-69962142D01*
X43109523Y-70009761D01*
X43204761Y-70057380D01*
X43347619Y-70057380D01*
X42157142Y-70057380D02*
X42157142Y-69533571D01*
X42204761Y-69438333D01*
X42300000Y-69390714D01*
X42490476Y-69390714D01*
X42585714Y-69438333D01*
X42157142Y-70009761D02*
X42252380Y-70057380D01*
X42490476Y-70057380D01*
X42585714Y-70009761D01*
X42633333Y-69914523D01*
X42633333Y-69819285D01*
X42585714Y-69724047D01*
X42490476Y-69676428D01*
X42252380Y-69676428D01*
X42157142Y-69628809D01*
X41680952Y-70057380D02*
X41680952Y-69390714D01*
X41680952Y-69581190D02*
X41633333Y-69485952D01*
X41585714Y-69438333D01*
X41490476Y-69390714D01*
X41395238Y-69390714D01*
X40633333Y-70057380D02*
X40633333Y-69057380D01*
X40633333Y-70009761D02*
X40728571Y-70057380D01*
X40919047Y-70057380D01*
X41014285Y-70009761D01*
X41061904Y-69962142D01*
X41109523Y-69866904D01*
X41109523Y-69581190D01*
X41061904Y-69485952D01*
X41014285Y-69438333D01*
X40919047Y-69390714D01*
X40728571Y-69390714D01*
X40633333Y-69438333D01*
X53466666Y-71667380D02*
X53466666Y-70667380D01*
X53085714Y-70667380D01*
X52990476Y-70715000D01*
X52942857Y-70762619D01*
X52895238Y-70857857D01*
X52895238Y-71000714D01*
X52942857Y-71095952D01*
X52990476Y-71143571D01*
X53085714Y-71191190D01*
X53466666Y-71191190D01*
X52038095Y-71667380D02*
X52038095Y-71143571D01*
X52085714Y-71048333D01*
X52180952Y-71000714D01*
X52371428Y-71000714D01*
X52466666Y-71048333D01*
X52038095Y-71619761D02*
X52133333Y-71667380D01*
X52371428Y-71667380D01*
X52466666Y-71619761D01*
X52514285Y-71524523D01*
X52514285Y-71429285D01*
X52466666Y-71334047D01*
X52371428Y-71286428D01*
X52133333Y-71286428D01*
X52038095Y-71238809D01*
X51561904Y-71000714D02*
X51561904Y-71667380D01*
X51561904Y-71095952D02*
X51514285Y-71048333D01*
X51419047Y-71000714D01*
X51276190Y-71000714D01*
X51180952Y-71048333D01*
X51133333Y-71143571D01*
X51133333Y-71667380D01*
X50228571Y-71619761D02*
X50323809Y-71667380D01*
X50514285Y-71667380D01*
X50609523Y-71619761D01*
X50657142Y-71572142D01*
X50704761Y-71476904D01*
X50704761Y-71191190D01*
X50657142Y-71095952D01*
X50609523Y-71048333D01*
X50514285Y-71000714D01*
X50323809Y-71000714D01*
X50228571Y-71048333D01*
X49371428Y-71667380D02*
X49371428Y-71143571D01*
X49419047Y-71048333D01*
X49514285Y-71000714D01*
X49704761Y-71000714D01*
X49800000Y-71048333D01*
X49371428Y-71619761D02*
X49466666Y-71667380D01*
X49704761Y-71667380D01*
X49800000Y-71619761D01*
X49847619Y-71524523D01*
X49847619Y-71429285D01*
X49800000Y-71334047D01*
X49704761Y-71286428D01*
X49466666Y-71286428D01*
X49371428Y-71238809D01*
X48895238Y-71667380D02*
X48895238Y-70667380D01*
X48800000Y-71286428D02*
X48514285Y-71667380D01*
X48514285Y-71000714D02*
X48895238Y-71381666D01*
X47704761Y-71619761D02*
X47800000Y-71667380D01*
X47990476Y-71667380D01*
X48085714Y-71619761D01*
X48133333Y-71524523D01*
X48133333Y-71143571D01*
X48085714Y-71048333D01*
X47990476Y-71000714D01*
X47800000Y-71000714D01*
X47704761Y-71048333D01*
X47657142Y-71143571D01*
X47657142Y-71238809D01*
X48133333Y-71334047D01*
X47228571Y-71572142D02*
X47180952Y-71619761D01*
X47228571Y-71667380D01*
X47276190Y-71619761D01*
X47228571Y-71572142D01*
X47228571Y-71667380D01*
X46419047Y-71143571D02*
X46276190Y-71191190D01*
X46228571Y-71238809D01*
X46180952Y-71334047D01*
X46180952Y-71476904D01*
X46228571Y-71572142D01*
X46276190Y-71619761D01*
X46371428Y-71667380D01*
X46752380Y-71667380D01*
X46752380Y-70667380D01*
X46419047Y-70667380D01*
X46323809Y-70715000D01*
X46276190Y-70762619D01*
X46228571Y-70857857D01*
X46228571Y-70953095D01*
X46276190Y-71048333D01*
X46323809Y-71095952D01*
X46419047Y-71143571D01*
X46752380Y-71143571D01*
X45609523Y-71667380D02*
X45704761Y-71619761D01*
X45752380Y-71572142D01*
X45800000Y-71476904D01*
X45800000Y-71191190D01*
X45752380Y-71095952D01*
X45704761Y-71048333D01*
X45609523Y-71000714D01*
X45466666Y-71000714D01*
X45371428Y-71048333D01*
X45323809Y-71095952D01*
X45276190Y-71191190D01*
X45276190Y-71476904D01*
X45323809Y-71572142D01*
X45371428Y-71619761D01*
X45466666Y-71667380D01*
X45609523Y-71667380D01*
X44847619Y-71667380D02*
X44847619Y-71000714D01*
X44847619Y-71191190D02*
X44800000Y-71095952D01*
X44752380Y-71048333D01*
X44657142Y-71000714D01*
X44561904Y-71000714D01*
X43800000Y-71667380D02*
X43800000Y-71143571D01*
X43847619Y-71048333D01*
X43942857Y-71000714D01*
X44133333Y-71000714D01*
X44228571Y-71048333D01*
X43800000Y-71619761D02*
X43895238Y-71667380D01*
X44133333Y-71667380D01*
X44228571Y-71619761D01*
X44276190Y-71524523D01*
X44276190Y-71429285D01*
X44228571Y-71334047D01*
X44133333Y-71286428D01*
X43895238Y-71286428D01*
X43800000Y-71238809D01*
X42895238Y-71667380D02*
X42895238Y-70667380D01*
X42895238Y-71619761D02*
X42990476Y-71667380D01*
X43180952Y-71667380D01*
X43276190Y-71619761D01*
X43323809Y-71572142D01*
X43371428Y-71476904D01*
X43371428Y-71191190D01*
X43323809Y-71095952D01*
X43276190Y-71048333D01*
X43180952Y-71000714D01*
X42990476Y-71000714D01*
X42895238Y-71048333D01*
X41657142Y-71667380D02*
X41657142Y-70667380D01*
X41085714Y-71667380D01*
X41085714Y-70667380D01*
X40609523Y-71143571D02*
X40276190Y-71143571D01*
X40133333Y-71667380D02*
X40609523Y-71667380D01*
X40609523Y-70667380D01*
X40133333Y-70667380D01*
X39514285Y-70667380D02*
X39323809Y-70667380D01*
X39228571Y-70715000D01*
X39133333Y-70810238D01*
X39085714Y-71000714D01*
X39085714Y-71334047D01*
X39133333Y-71524523D01*
X39228571Y-71619761D01*
X39323809Y-71667380D01*
X39514285Y-71667380D01*
X39609523Y-71619761D01*
X39704761Y-71524523D01*
X39752380Y-71334047D01*
X39752380Y-71000714D01*
X39704761Y-70810238D01*
X39609523Y-70715000D01*
X39514285Y-70667380D01*
X47514285Y-73887380D02*
X46942857Y-73887380D01*
X47228571Y-74887380D02*
X47228571Y-73887380D01*
X46609523Y-74887380D02*
X46609523Y-73887380D01*
X46180952Y-74887380D02*
X46180952Y-74363571D01*
X46228571Y-74268333D01*
X46323809Y-74220714D01*
X46466666Y-74220714D01*
X46561904Y-74268333D01*
X46609523Y-74315952D01*
X45180952Y-74887380D02*
X45752380Y-74887380D01*
X45466666Y-74887380D02*
X45466666Y-73887380D01*
X45561904Y-74030238D01*
X45657142Y-74125476D01*
X45752380Y-74173095D01*
X47800000Y-78107380D02*
X48276190Y-78107380D01*
X48276190Y-77107380D01*
X47466666Y-77583571D02*
X47133333Y-77583571D01*
X46990476Y-78107380D02*
X47466666Y-78107380D01*
X47466666Y-77107380D01*
X46990476Y-77107380D01*
X46561904Y-78107380D02*
X46561904Y-77107380D01*
X46323809Y-77107380D01*
X46180952Y-77155000D01*
X46085714Y-77250238D01*
X46038095Y-77345476D01*
X45990476Y-77535952D01*
X45990476Y-77678809D01*
X46038095Y-77869285D01*
X46085714Y-77964523D01*
X46180952Y-78059761D01*
X46323809Y-78107380D01*
X46561904Y-78107380D01*
X44276190Y-78107380D02*
X44847619Y-78107380D01*
X44561904Y-78107380D02*
X44561904Y-77107380D01*
X44657142Y-77250238D01*
X44752380Y-77345476D01*
X44847619Y-77393095D01*
X47585714Y-80327380D02*
X47014285Y-80327380D01*
X47300000Y-81327380D02*
X47300000Y-80327380D01*
X46680952Y-81327380D02*
X46680952Y-80327380D01*
X46680952Y-80803571D02*
X46109523Y-80803571D01*
X46109523Y-81327380D02*
X46109523Y-80327380D01*
X45680952Y-80422619D02*
X45633333Y-80375000D01*
X45538095Y-80327380D01*
X45300000Y-80327380D01*
X45204761Y-80375000D01*
X45157142Y-80422619D01*
X45109523Y-80517857D01*
X45109523Y-80613095D01*
X45157142Y-80755952D01*
X45728571Y-81327380D01*
X45109523Y-81327380D01*
X47800000Y-84547380D02*
X48276190Y-84547380D01*
X48276190Y-83547380D01*
X47466666Y-84023571D02*
X47133333Y-84023571D01*
X46990476Y-84547380D02*
X47466666Y-84547380D01*
X47466666Y-83547380D01*
X46990476Y-83547380D01*
X46561904Y-84547380D02*
X46561904Y-83547380D01*
X46323809Y-83547380D01*
X46180952Y-83595000D01*
X46085714Y-83690238D01*
X46038095Y-83785476D01*
X45990476Y-83975952D01*
X45990476Y-84118809D01*
X46038095Y-84309285D01*
X46085714Y-84404523D01*
X46180952Y-84499761D01*
X46323809Y-84547380D01*
X46561904Y-84547380D01*
X44847619Y-83642619D02*
X44800000Y-83595000D01*
X44704761Y-83547380D01*
X44466666Y-83547380D01*
X44371428Y-83595000D01*
X44323809Y-83642619D01*
X44276190Y-83737857D01*
X44276190Y-83833095D01*
X44323809Y-83975952D01*
X44895238Y-84547380D01*
X44276190Y-84547380D01*
X209547619Y-71009523D02*
X210547619Y-71009523D01*
X210071428Y-71009523D02*
X210071428Y-70438095D01*
X209547619Y-70438095D02*
X210547619Y-70438095D01*
X209595238Y-69580952D02*
X209547619Y-69676190D01*
X209547619Y-69866666D01*
X209595238Y-69961904D01*
X209690476Y-70009523D01*
X210071428Y-70009523D01*
X210166666Y-69961904D01*
X210214285Y-69866666D01*
X210214285Y-69676190D01*
X210166666Y-69580952D01*
X210071428Y-69533333D01*
X209976190Y-69533333D01*
X209880952Y-70009523D01*
X209547619Y-68676190D02*
X210071428Y-68676190D01*
X210166666Y-68723809D01*
X210214285Y-68819047D01*
X210214285Y-69009523D01*
X210166666Y-69104761D01*
X209595238Y-68676190D02*
X209547619Y-68771428D01*
X209547619Y-69009523D01*
X209595238Y-69104761D01*
X209690476Y-69152380D01*
X209785714Y-69152380D01*
X209880952Y-69104761D01*
X209928571Y-69009523D01*
X209928571Y-68771428D01*
X209976190Y-68676190D01*
X210214285Y-68342857D02*
X210214285Y-67961904D01*
X210547619Y-68200000D02*
X209690476Y-68200000D01*
X209595238Y-68152380D01*
X209547619Y-68057142D01*
X209547619Y-67961904D01*
X209595238Y-67247619D02*
X209547619Y-67342857D01*
X209547619Y-67533333D01*
X209595238Y-67628571D01*
X209690476Y-67676190D01*
X210071428Y-67676190D01*
X210166666Y-67628571D01*
X210214285Y-67533333D01*
X210214285Y-67342857D01*
X210166666Y-67247619D01*
X210071428Y-67200000D01*
X209976190Y-67200000D01*
X209880952Y-67676190D01*
X209547619Y-66771428D02*
X210214285Y-66771428D01*
X210023809Y-66771428D02*
X210119047Y-66723809D01*
X210166666Y-66676190D01*
X210214285Y-66580952D01*
X210214285Y-66485714D01*
X210071428Y-65057142D02*
X210071428Y-65390476D01*
X209547619Y-65390476D02*
X210547619Y-65390476D01*
X210547619Y-64914285D01*
X209833333Y-64580952D02*
X209833333Y-64104761D01*
X209547619Y-64676190D02*
X210547619Y-64342857D01*
X209547619Y-64009523D01*
X209547619Y-63676190D02*
X210547619Y-63676190D01*
X209547619Y-63104761D01*
X210547619Y-63104761D01*
X210452380Y-61914285D02*
X210500000Y-61866666D01*
X210547619Y-61771428D01*
X210547619Y-61533333D01*
X210500000Y-61438095D01*
X210452380Y-61390476D01*
X210357142Y-61342857D01*
X210261904Y-61342857D01*
X210119047Y-61390476D01*
X209547619Y-61961904D01*
X209547619Y-61342857D01*
X121147619Y-93321428D02*
X120385714Y-93321428D01*
X120766666Y-93702380D02*
X120766666Y-92940476D01*
X119957142Y-92797619D02*
X119909523Y-92750000D01*
X119814285Y-92702380D01*
X119576190Y-92702380D01*
X119480952Y-92750000D01*
X119433333Y-92797619D01*
X119385714Y-92892857D01*
X119385714Y-92988095D01*
X119433333Y-93130952D01*
X120004761Y-93702380D01*
X119385714Y-93702380D01*
X118528571Y-93035714D02*
X118528571Y-93702380D01*
X118766666Y-92654761D02*
X119004761Y-93369047D01*
X118385714Y-93369047D01*
X118147619Y-92702380D02*
X117814285Y-93702380D01*
X117480952Y-92702380D01*
X115100000Y-92750000D02*
X115195238Y-92702380D01*
X115338095Y-92702380D01*
X115480952Y-92750000D01*
X115576190Y-92845238D01*
X115623809Y-92940476D01*
X115671428Y-93130952D01*
X115671428Y-93273809D01*
X115623809Y-93464285D01*
X115576190Y-93559523D01*
X115480952Y-93654761D01*
X115338095Y-93702380D01*
X115242857Y-93702380D01*
X115100000Y-93654761D01*
X115052380Y-93607142D01*
X115052380Y-93273809D01*
X115242857Y-93273809D01*
X114623809Y-93702380D02*
X114623809Y-92702380D01*
X114052380Y-93702380D01*
X114052380Y-92702380D01*
X113576190Y-93702380D02*
X113576190Y-92702380D01*
X113338095Y-92702380D01*
X113195238Y-92750000D01*
X113100000Y-92845238D01*
X113052380Y-92940476D01*
X113004761Y-93130952D01*
X113004761Y-93273809D01*
X113052380Y-93464285D01*
X113100000Y-93559523D01*
X113195238Y-93654761D01*
X113338095Y-93702380D01*
X113576190Y-93702380D01*
X92497619Y-71559523D02*
X93497619Y-71559523D01*
X93021428Y-71559523D02*
X93021428Y-70988095D01*
X92497619Y-70988095D02*
X93497619Y-70988095D01*
X92545238Y-70130952D02*
X92497619Y-70226190D01*
X92497619Y-70416666D01*
X92545238Y-70511904D01*
X92640476Y-70559523D01*
X93021428Y-70559523D01*
X93116666Y-70511904D01*
X93164285Y-70416666D01*
X93164285Y-70226190D01*
X93116666Y-70130952D01*
X93021428Y-70083333D01*
X92926190Y-70083333D01*
X92830952Y-70559523D01*
X92497619Y-69226190D02*
X93021428Y-69226190D01*
X93116666Y-69273809D01*
X93164285Y-69369047D01*
X93164285Y-69559523D01*
X93116666Y-69654761D01*
X92545238Y-69226190D02*
X92497619Y-69321428D01*
X92497619Y-69559523D01*
X92545238Y-69654761D01*
X92640476Y-69702380D01*
X92735714Y-69702380D01*
X92830952Y-69654761D01*
X92878571Y-69559523D01*
X92878571Y-69321428D01*
X92926190Y-69226190D01*
X93164285Y-68892857D02*
X93164285Y-68511904D01*
X93497619Y-68750000D02*
X92640476Y-68750000D01*
X92545238Y-68702380D01*
X92497619Y-68607142D01*
X92497619Y-68511904D01*
X92545238Y-67797619D02*
X92497619Y-67892857D01*
X92497619Y-68083333D01*
X92545238Y-68178571D01*
X92640476Y-68226190D01*
X93021428Y-68226190D01*
X93116666Y-68178571D01*
X93164285Y-68083333D01*
X93164285Y-67892857D01*
X93116666Y-67797619D01*
X93021428Y-67750000D01*
X92926190Y-67750000D01*
X92830952Y-68226190D01*
X92497619Y-67321428D02*
X93164285Y-67321428D01*
X92973809Y-67321428D02*
X93069047Y-67273809D01*
X93116666Y-67226190D01*
X93164285Y-67130952D01*
X93164285Y-67035714D01*
X93021428Y-65607142D02*
X93021428Y-65940476D01*
X92497619Y-65940476D02*
X93497619Y-65940476D01*
X93497619Y-65464285D01*
X92783333Y-65130952D02*
X92783333Y-64654761D01*
X92497619Y-65226190D02*
X93497619Y-64892857D01*
X92497619Y-64559523D01*
X92497619Y-64226190D02*
X93497619Y-64226190D01*
X92497619Y-63654761D01*
X93497619Y-63654761D01*
X92497619Y-61892857D02*
X92497619Y-62464285D01*
X92497619Y-62178571D02*
X93497619Y-62178571D01*
X93354761Y-62273809D01*
X93259523Y-62369047D01*
X93211904Y-62464285D01*
X106697619Y-71490476D02*
X106697619Y-70919047D01*
X105697619Y-71204761D02*
X106697619Y-71204761D01*
X105697619Y-70585714D02*
X106697619Y-70585714D01*
X105697619Y-70157142D02*
X106221428Y-70157142D01*
X106316666Y-70204761D01*
X106364285Y-70300000D01*
X106364285Y-70442857D01*
X106316666Y-70538095D01*
X106269047Y-70585714D01*
X105745238Y-69300000D02*
X105697619Y-69395238D01*
X105697619Y-69585714D01*
X105745238Y-69680952D01*
X105840476Y-69728571D01*
X106221428Y-69728571D01*
X106316666Y-69680952D01*
X106364285Y-69585714D01*
X106364285Y-69395238D01*
X106316666Y-69300000D01*
X106221428Y-69252380D01*
X106126190Y-69252380D01*
X106030952Y-69728571D01*
X105697619Y-68823809D02*
X106364285Y-68823809D01*
X106173809Y-68823809D02*
X106269047Y-68776190D01*
X106316666Y-68728571D01*
X106364285Y-68633333D01*
X106364285Y-68538095D01*
X105697619Y-68204761D02*
X106364285Y-68204761D01*
X106269047Y-68204761D02*
X106316666Y-68157142D01*
X106364285Y-68061904D01*
X106364285Y-67919047D01*
X106316666Y-67823809D01*
X106221428Y-67776190D01*
X105697619Y-67776190D01*
X106221428Y-67776190D02*
X106316666Y-67728571D01*
X106364285Y-67633333D01*
X106364285Y-67490476D01*
X106316666Y-67395238D01*
X106221428Y-67347619D01*
X105697619Y-67347619D01*
X105697619Y-66871428D02*
X106364285Y-66871428D01*
X106697619Y-66871428D02*
X106650000Y-66919047D01*
X106602380Y-66871428D01*
X106650000Y-66823809D01*
X106697619Y-66871428D01*
X106602380Y-66871428D01*
X105745238Y-66442857D02*
X105697619Y-66347619D01*
X105697619Y-66157142D01*
X105745238Y-66061904D01*
X105840476Y-66014285D01*
X105888095Y-66014285D01*
X105983333Y-66061904D01*
X106030952Y-66157142D01*
X106030952Y-66300000D01*
X106078571Y-66395238D01*
X106173809Y-66442857D01*
X106221428Y-66442857D01*
X106316666Y-66395238D01*
X106364285Y-66300000D01*
X106364285Y-66157142D01*
X106316666Y-66061904D01*
X106364285Y-65728571D02*
X106364285Y-65347619D01*
X106697619Y-65585714D02*
X105840476Y-65585714D01*
X105745238Y-65538095D01*
X105697619Y-65442857D01*
X105697619Y-65347619D01*
X105697619Y-64871428D02*
X105745238Y-64966666D01*
X105792857Y-65014285D01*
X105888095Y-65061904D01*
X106173809Y-65061904D01*
X106269047Y-65014285D01*
X106316666Y-64966666D01*
X106364285Y-64871428D01*
X106364285Y-64728571D01*
X106316666Y-64633333D01*
X106269047Y-64585714D01*
X106173809Y-64538095D01*
X105888095Y-64538095D01*
X105792857Y-64585714D01*
X105745238Y-64633333D01*
X105697619Y-64728571D01*
X105697619Y-64871428D01*
X105697619Y-64109523D02*
X106364285Y-64109523D01*
X106173809Y-64109523D02*
X106269047Y-64061904D01*
X106316666Y-64014285D01*
X106364285Y-63919047D01*
X106364285Y-63823809D01*
X105697619Y-62204761D02*
X105697619Y-62776190D01*
X105697619Y-62490476D02*
X106697619Y-62490476D01*
X106554761Y-62585714D01*
X106459523Y-62680952D01*
X106411904Y-62776190D01*
X78321428Y-71178571D02*
X78321428Y-70845238D01*
X77797619Y-70702380D02*
X77797619Y-71178571D01*
X78797619Y-71178571D01*
X78797619Y-70702380D01*
X78464285Y-70273809D02*
X77797619Y-70273809D01*
X78369047Y-70273809D02*
X78416666Y-70226190D01*
X78464285Y-70130952D01*
X78464285Y-69988095D01*
X78416666Y-69892857D01*
X78321428Y-69845238D01*
X77797619Y-69845238D01*
X77797619Y-68940476D02*
X78797619Y-68940476D01*
X77845238Y-68940476D02*
X77797619Y-69035714D01*
X77797619Y-69226190D01*
X77845238Y-69321428D01*
X77892857Y-69369047D01*
X77988095Y-69416666D01*
X78273809Y-69416666D01*
X78369047Y-69369047D01*
X78416666Y-69321428D01*
X78464285Y-69226190D01*
X78464285Y-69035714D01*
X78416666Y-68940476D01*
X77845238Y-68511904D02*
X77797619Y-68416666D01*
X77797619Y-68226190D01*
X77845238Y-68130952D01*
X77940476Y-68083333D01*
X77988095Y-68083333D01*
X78083333Y-68130952D01*
X78130952Y-68226190D01*
X78130952Y-68369047D01*
X78178571Y-68464285D01*
X78273809Y-68511904D01*
X78321428Y-68511904D01*
X78416666Y-68464285D01*
X78464285Y-68369047D01*
X78464285Y-68226190D01*
X78416666Y-68130952D01*
X78464285Y-67797619D02*
X78464285Y-67416666D01*
X78797619Y-67654761D02*
X77940476Y-67654761D01*
X77845238Y-67607142D01*
X77797619Y-67511904D01*
X77797619Y-67416666D01*
X77797619Y-66940476D02*
X77845238Y-67035714D01*
X77892857Y-67083333D01*
X77988095Y-67130952D01*
X78273809Y-67130952D01*
X78369047Y-67083333D01*
X78416666Y-67035714D01*
X78464285Y-66940476D01*
X78464285Y-66797619D01*
X78416666Y-66702380D01*
X78369047Y-66654761D01*
X78273809Y-66607142D01*
X77988095Y-66607142D01*
X77892857Y-66654761D01*
X77845238Y-66702380D01*
X77797619Y-66797619D01*
X77797619Y-66940476D01*
X78464285Y-66178571D02*
X77464285Y-66178571D01*
X78416666Y-66178571D02*
X78464285Y-66083333D01*
X78464285Y-65892857D01*
X78416666Y-65797619D01*
X78369047Y-65750000D01*
X78273809Y-65702380D01*
X77988095Y-65702380D01*
X77892857Y-65750000D01*
X77845238Y-65797619D01*
X77797619Y-65892857D01*
X77797619Y-66083333D01*
X77845238Y-66178571D01*
X78797619Y-64321428D02*
X78797619Y-64226190D01*
X78750000Y-64130952D01*
X78702380Y-64083333D01*
X78607142Y-64035714D01*
X78416666Y-63988095D01*
X78178571Y-63988095D01*
X77988095Y-64035714D01*
X77892857Y-64083333D01*
X77845238Y-64130952D01*
X77797619Y-64226190D01*
X77797619Y-64321428D01*
X77845238Y-64416666D01*
X77892857Y-64464285D01*
X77988095Y-64511904D01*
X78178571Y-64559523D01*
X78416666Y-64559523D01*
X78607142Y-64511904D01*
X78702380Y-64464285D01*
X78750000Y-64416666D01*
X78797619Y-64321428D01*
X77702380Y-63797619D02*
X77702380Y-63035714D01*
X77797619Y-62273809D02*
X77797619Y-62845238D01*
X77797619Y-62559523D02*
X78797619Y-62559523D01*
X78654761Y-62654761D01*
X78559523Y-62750000D01*
X78511904Y-62845238D01*
X84888095Y-94133333D02*
X84935714Y-94085714D01*
X85030952Y-93942857D01*
X85078571Y-93847619D01*
X85126190Y-93704761D01*
X85173809Y-93466666D01*
X85173809Y-93276190D01*
X85126190Y-93038095D01*
X85078571Y-92895238D01*
X85030952Y-92800000D01*
X84935714Y-92657142D01*
X84888095Y-92609523D01*
X84507142Y-93752380D02*
X84507142Y-92752380D01*
X83935714Y-93752380D01*
X83935714Y-92752380D01*
X82888095Y-93657142D02*
X82935714Y-93704761D01*
X83078571Y-93752380D01*
X83173809Y-93752380D01*
X83316666Y-93704761D01*
X83411904Y-93609523D01*
X83459523Y-93514285D01*
X83507142Y-93323809D01*
X83507142Y-93180952D01*
X83459523Y-92990476D01*
X83411904Y-92895238D01*
X83316666Y-92800000D01*
X83173809Y-92752380D01*
X83078571Y-92752380D01*
X82935714Y-92800000D01*
X82888095Y-92847619D01*
X82459523Y-93657142D02*
X82411904Y-93704761D01*
X82459523Y-93752380D01*
X82507142Y-93704761D01*
X82459523Y-93657142D01*
X82459523Y-93752380D01*
X82459523Y-93133333D02*
X82411904Y-93180952D01*
X82459523Y-93228571D01*
X82507142Y-93180952D01*
X82459523Y-93133333D01*
X82459523Y-93228571D01*
X81983333Y-93752380D02*
X81983333Y-92752380D01*
X81745238Y-92752380D01*
X81602380Y-92800000D01*
X81507142Y-92895238D01*
X81459523Y-92990476D01*
X81411904Y-93180952D01*
X81411904Y-93323809D01*
X81459523Y-93514285D01*
X81507142Y-93609523D01*
X81602380Y-93704761D01*
X81745238Y-93752380D01*
X81983333Y-93752380D01*
X80459523Y-93752380D02*
X81030952Y-93752380D01*
X80745238Y-93752380D02*
X80745238Y-92752380D01*
X80840476Y-92895238D01*
X80935714Y-92990476D01*
X81030952Y-93038095D01*
X80030952Y-93657142D02*
X79983333Y-93704761D01*
X80030952Y-93752380D01*
X80078571Y-93704761D01*
X80030952Y-93657142D01*
X80030952Y-93752380D01*
X80030952Y-93133333D02*
X79983333Y-93180952D01*
X80030952Y-93228571D01*
X80078571Y-93180952D01*
X80030952Y-93133333D01*
X80030952Y-93228571D01*
X79554761Y-93752380D02*
X79554761Y-92752380D01*
X79316666Y-92752380D01*
X79173809Y-92800000D01*
X79078571Y-92895238D01*
X79030952Y-92990476D01*
X78983333Y-93180952D01*
X78983333Y-93323809D01*
X79030952Y-93514285D01*
X79078571Y-93609523D01*
X79173809Y-93704761D01*
X79316666Y-93752380D01*
X79554761Y-93752380D01*
X78602380Y-92847619D02*
X78554761Y-92800000D01*
X78459523Y-92752380D01*
X78221428Y-92752380D01*
X78126190Y-92800000D01*
X78078571Y-92847619D01*
X78030952Y-92942857D01*
X78030952Y-93038095D01*
X78078571Y-93180952D01*
X78650000Y-93752380D01*
X78030952Y-93752380D01*
X77602380Y-93657142D02*
X77554761Y-93704761D01*
X77602380Y-93752380D01*
X77650000Y-93704761D01*
X77602380Y-93657142D01*
X77602380Y-93752380D01*
X77602380Y-93133333D02*
X77554761Y-93180952D01*
X77602380Y-93228571D01*
X77650000Y-93180952D01*
X77602380Y-93133333D01*
X77602380Y-93228571D01*
X77126190Y-93752380D02*
X77126190Y-92752380D01*
X76554761Y-93752380D01*
X76554761Y-92752380D01*
X75507142Y-93657142D02*
X75554761Y-93704761D01*
X75697619Y-93752380D01*
X75792857Y-93752380D01*
X75935714Y-93704761D01*
X76030952Y-93609523D01*
X76078571Y-93514285D01*
X76126190Y-93323809D01*
X76126190Y-93180952D01*
X76078571Y-92990476D01*
X76030952Y-92895238D01*
X75935714Y-92800000D01*
X75792857Y-92752380D01*
X75697619Y-92752380D01*
X75554761Y-92800000D01*
X75507142Y-92847619D01*
X75173809Y-94133333D02*
X75126190Y-94085714D01*
X75030952Y-93942857D01*
X74983333Y-93847619D01*
X74935714Y-93704761D01*
X74888095Y-93466666D01*
X74888095Y-93276190D01*
X74935714Y-93038095D01*
X74983333Y-92895238D01*
X75030952Y-92800000D01*
X75126190Y-92657142D01*
X75173809Y-92609523D01*
X73650000Y-92752380D02*
X73650000Y-93561904D01*
X73602380Y-93657142D01*
X73554761Y-93704761D01*
X73459523Y-93752380D01*
X73269047Y-93752380D01*
X73173809Y-93704761D01*
X73126190Y-93657142D01*
X73078571Y-93561904D01*
X73078571Y-92752380D01*
X72650000Y-93704761D02*
X72507142Y-93752380D01*
X72269047Y-93752380D01*
X72173809Y-93704761D01*
X72126190Y-93657142D01*
X72078571Y-93561904D01*
X72078571Y-93466666D01*
X72126190Y-93371428D01*
X72173809Y-93323809D01*
X72269047Y-93276190D01*
X72459523Y-93228571D01*
X72554761Y-93180952D01*
X72602380Y-93133333D01*
X72650000Y-93038095D01*
X72650000Y-92942857D01*
X72602380Y-92847619D01*
X72554761Y-92800000D01*
X72459523Y-92752380D01*
X72221428Y-92752380D01*
X72078571Y-92800000D01*
X71316666Y-93228571D02*
X71173809Y-93276190D01*
X71126190Y-93323809D01*
X71078571Y-93419047D01*
X71078571Y-93561904D01*
X71126190Y-93657142D01*
X71173809Y-93704761D01*
X71269047Y-93752380D01*
X71650000Y-93752380D01*
X71650000Y-92752380D01*
X71316666Y-92752380D01*
X71221428Y-92800000D01*
X71173809Y-92847619D01*
X71126190Y-92942857D01*
X71126190Y-93038095D01*
X71173809Y-93133333D01*
X71221428Y-93180952D01*
X71316666Y-93228571D01*
X71650000Y-93228571D01*
%TO.C,J14*%
X202259523Y-71252380D02*
X202259523Y-71966666D01*
X202307142Y-72109523D01*
X202402380Y-72204761D01*
X202545238Y-72252380D01*
X202640476Y-72252380D01*
X201259523Y-72252380D02*
X201830952Y-72252380D01*
X201545238Y-72252380D02*
X201545238Y-71252380D01*
X201640476Y-71395238D01*
X201735714Y-71490476D01*
X201830952Y-71538095D01*
X200402380Y-71585714D02*
X200402380Y-72252380D01*
X200640476Y-71204761D02*
X200878571Y-71919047D01*
X200259523Y-71919047D01*
%TO.C,J16*%
X217559523Y-83602380D02*
X217559523Y-84316666D01*
X217607142Y-84459523D01*
X217702380Y-84554761D01*
X217845238Y-84602380D01*
X217940476Y-84602380D01*
X216559523Y-84602380D02*
X217130952Y-84602380D01*
X216845238Y-84602380D02*
X216845238Y-83602380D01*
X216940476Y-83745238D01*
X217035714Y-83840476D01*
X217130952Y-83888095D01*
X215702380Y-83602380D02*
X215892857Y-83602380D01*
X215988095Y-83650000D01*
X216035714Y-83697619D01*
X216130952Y-83840476D01*
X216178571Y-84030952D01*
X216178571Y-84411904D01*
X216130952Y-84507142D01*
X216083333Y-84554761D01*
X215988095Y-84602380D01*
X215797619Y-84602380D01*
X215702380Y-84554761D01*
X215654761Y-84507142D01*
X215607142Y-84411904D01*
X215607142Y-84173809D01*
X215654761Y-84078571D01*
X215702380Y-84030952D01*
X215797619Y-83983333D01*
X215988095Y-83983333D01*
X216083333Y-84030952D01*
X216130952Y-84078571D01*
X216178571Y-84173809D01*
%TO.C,J19*%
X52864523Y-72472380D02*
X52864523Y-73186666D01*
X52912142Y-73329523D01*
X53007380Y-73424761D01*
X53150238Y-73472380D01*
X53245476Y-73472380D01*
X51864523Y-73472380D02*
X52435952Y-73472380D01*
X52150238Y-73472380D02*
X52150238Y-72472380D01*
X52245476Y-72615238D01*
X52340714Y-72710476D01*
X52435952Y-72758095D01*
X51388333Y-73472380D02*
X51197857Y-73472380D01*
X51102619Y-73424761D01*
X51055000Y-73377142D01*
X50959761Y-73234285D01*
X50912142Y-73043809D01*
X50912142Y-72662857D01*
X50959761Y-72567619D01*
X51007380Y-72520000D01*
X51102619Y-72472380D01*
X51293095Y-72472380D01*
X51388333Y-72520000D01*
X51435952Y-72567619D01*
X51483571Y-72662857D01*
X51483571Y-72900952D01*
X51435952Y-72996190D01*
X51388333Y-73043809D01*
X51293095Y-73091428D01*
X51102619Y-73091428D01*
X51007380Y-73043809D01*
X50959761Y-72996190D01*
X50912142Y-72900952D01*
%TO.C,J2*%
X176533333Y-85902380D02*
X176533333Y-86616666D01*
X176580952Y-86759523D01*
X176676190Y-86854761D01*
X176819047Y-86902380D01*
X176914285Y-86902380D01*
X176104761Y-85997619D02*
X176057142Y-85950000D01*
X175961904Y-85902380D01*
X175723809Y-85902380D01*
X175628571Y-85950000D01*
X175580952Y-85997619D01*
X175533333Y-86092857D01*
X175533333Y-86188095D01*
X175580952Y-86330952D01*
X176152380Y-86902380D01*
X175533333Y-86902380D01*
%TO.C,J18*%
X201009523Y-88152380D02*
X201009523Y-88866666D01*
X201057142Y-89009523D01*
X201152380Y-89104761D01*
X201295238Y-89152380D01*
X201390476Y-89152380D01*
X200009523Y-89152380D02*
X200580952Y-89152380D01*
X200295238Y-89152380D02*
X200295238Y-88152380D01*
X200390476Y-88295238D01*
X200485714Y-88390476D01*
X200580952Y-88438095D01*
X199438095Y-88580952D02*
X199533333Y-88533333D01*
X199580952Y-88485714D01*
X199628571Y-88390476D01*
X199628571Y-88342857D01*
X199580952Y-88247619D01*
X199533333Y-88200000D01*
X199438095Y-88152380D01*
X199247619Y-88152380D01*
X199152380Y-88200000D01*
X199104761Y-88247619D01*
X199057142Y-88342857D01*
X199057142Y-88390476D01*
X199104761Y-88485714D01*
X199152380Y-88533333D01*
X199247619Y-88580952D01*
X199438095Y-88580952D01*
X199533333Y-88628571D01*
X199580952Y-88676190D01*
X199628571Y-88771428D01*
X199628571Y-88961904D01*
X199580952Y-89057142D01*
X199533333Y-89104761D01*
X199438095Y-89152380D01*
X199247619Y-89152380D01*
X199152380Y-89104761D01*
X199104761Y-89057142D01*
X199057142Y-88961904D01*
X199057142Y-88771428D01*
X199104761Y-88676190D01*
X199152380Y-88628571D01*
X199247619Y-88580952D01*
%TO.C,J10*%
X83934523Y-83602380D02*
X83934523Y-84316666D01*
X83982142Y-84459523D01*
X84077380Y-84554761D01*
X84220238Y-84602380D01*
X84315476Y-84602380D01*
X82934523Y-84602380D02*
X83505952Y-84602380D01*
X83220238Y-84602380D02*
X83220238Y-83602380D01*
X83315476Y-83745238D01*
X83410714Y-83840476D01*
X83505952Y-83888095D01*
X82315476Y-83602380D02*
X82220238Y-83602380D01*
X82125000Y-83650000D01*
X82077380Y-83697619D01*
X82029761Y-83792857D01*
X81982142Y-83983333D01*
X81982142Y-84221428D01*
X82029761Y-84411904D01*
X82077380Y-84507142D01*
X82125000Y-84554761D01*
X82220238Y-84602380D01*
X82315476Y-84602380D01*
X82410714Y-84554761D01*
X82458333Y-84507142D01*
X82505952Y-84411904D01*
X82553571Y-84221428D01*
X82553571Y-83983333D01*
X82505952Y-83792857D01*
X82458333Y-83697619D01*
X82410714Y-83650000D01*
X82315476Y-83602380D01*
%TO.C,J3*%
X61833333Y-71592380D02*
X61833333Y-72306666D01*
X61880952Y-72449523D01*
X61976190Y-72544761D01*
X62119047Y-72592380D01*
X62214285Y-72592380D01*
X61452380Y-71592380D02*
X60833333Y-71592380D01*
X61166666Y-71973333D01*
X61023809Y-71973333D01*
X60928571Y-72020952D01*
X60880952Y-72068571D01*
X60833333Y-72163809D01*
X60833333Y-72401904D01*
X60880952Y-72497142D01*
X60928571Y-72544761D01*
X61023809Y-72592380D01*
X61309523Y-72592380D01*
X61404761Y-72544761D01*
X61452380Y-72497142D01*
%TO.C,J17*%
X224259523Y-83552380D02*
X224259523Y-84266666D01*
X224307142Y-84409523D01*
X224402380Y-84504761D01*
X224545238Y-84552380D01*
X224640476Y-84552380D01*
X223259523Y-84552380D02*
X223830952Y-84552380D01*
X223545238Y-84552380D02*
X223545238Y-83552380D01*
X223640476Y-83695238D01*
X223735714Y-83790476D01*
X223830952Y-83838095D01*
X222926190Y-83552380D02*
X222259523Y-83552380D01*
X222688095Y-84552380D01*
%TO.C,J24*%
X85759523Y-84827380D02*
X85759523Y-85541666D01*
X85807142Y-85684523D01*
X85902380Y-85779761D01*
X86045238Y-85827380D01*
X86140476Y-85827380D01*
X85330952Y-84922619D02*
X85283333Y-84875000D01*
X85188095Y-84827380D01*
X84950000Y-84827380D01*
X84854761Y-84875000D01*
X84807142Y-84922619D01*
X84759523Y-85017857D01*
X84759523Y-85113095D01*
X84807142Y-85255952D01*
X85378571Y-85827380D01*
X84759523Y-85827380D01*
X83902380Y-85160714D02*
X83902380Y-85827380D01*
X84140476Y-84779761D02*
X84378571Y-85494047D01*
X83759523Y-85494047D01*
%TO.C,J8*%
X96658333Y-81452380D02*
X96658333Y-82166666D01*
X96705952Y-82309523D01*
X96801190Y-82404761D01*
X96944047Y-82452380D01*
X97039285Y-82452380D01*
X96039285Y-81880952D02*
X96134523Y-81833333D01*
X96182142Y-81785714D01*
X96229761Y-81690476D01*
X96229761Y-81642857D01*
X96182142Y-81547619D01*
X96134523Y-81500000D01*
X96039285Y-81452380D01*
X95848809Y-81452380D01*
X95753571Y-81500000D01*
X95705952Y-81547619D01*
X95658333Y-81642857D01*
X95658333Y-81690476D01*
X95705952Y-81785714D01*
X95753571Y-81833333D01*
X95848809Y-81880952D01*
X96039285Y-81880952D01*
X96134523Y-81928571D01*
X96182142Y-81976190D01*
X96229761Y-82071428D01*
X96229761Y-82261904D01*
X96182142Y-82357142D01*
X96134523Y-82404761D01*
X96039285Y-82452380D01*
X95848809Y-82452380D01*
X95753571Y-82404761D01*
X95705952Y-82357142D01*
X95658333Y-82261904D01*
X95658333Y-82071428D01*
X95705952Y-81976190D01*
X95753571Y-81928571D01*
X95848809Y-81880952D01*
%TO.C,J23*%
X96859523Y-84702380D02*
X96859523Y-85416666D01*
X96907142Y-85559523D01*
X97002380Y-85654761D01*
X97145238Y-85702380D01*
X97240476Y-85702380D01*
X96430952Y-84797619D02*
X96383333Y-84750000D01*
X96288095Y-84702380D01*
X96050000Y-84702380D01*
X95954761Y-84750000D01*
X95907142Y-84797619D01*
X95859523Y-84892857D01*
X95859523Y-84988095D01*
X95907142Y-85130952D01*
X96478571Y-85702380D01*
X95859523Y-85702380D01*
X95526190Y-84702380D02*
X94907142Y-84702380D01*
X95240476Y-85083333D01*
X95097619Y-85083333D01*
X95002380Y-85130952D01*
X94954761Y-85178571D01*
X94907142Y-85273809D01*
X94907142Y-85511904D01*
X94954761Y-85607142D01*
X95002380Y-85654761D01*
X95097619Y-85702380D01*
X95383333Y-85702380D01*
X95478571Y-85654761D01*
X95526190Y-85607142D01*
%TO.C,J1*%
X123933333Y-86752380D02*
X123933333Y-87466666D01*
X123980952Y-87609523D01*
X124076190Y-87704761D01*
X124219047Y-87752380D01*
X124314285Y-87752380D01*
X122933333Y-87752380D02*
X123504761Y-87752380D01*
X123219047Y-87752380D02*
X123219047Y-86752380D01*
X123314285Y-86895238D01*
X123409523Y-86990476D01*
X123504761Y-87038095D01*
%TO.C,J4*%
X245283333Y-76552380D02*
X245283333Y-77266666D01*
X245330952Y-77409523D01*
X245426190Y-77504761D01*
X245569047Y-77552380D01*
X245664285Y-77552380D01*
X244378571Y-76885714D02*
X244378571Y-77552380D01*
X244616666Y-76504761D02*
X244854761Y-77219047D01*
X244235714Y-77219047D01*
%TO.C,J9*%
X90108333Y-81452380D02*
X90108333Y-82166666D01*
X90155952Y-82309523D01*
X90251190Y-82404761D01*
X90394047Y-82452380D01*
X90489285Y-82452380D01*
X89584523Y-82452380D02*
X89394047Y-82452380D01*
X89298809Y-82404761D01*
X89251190Y-82357142D01*
X89155952Y-82214285D01*
X89108333Y-82023809D01*
X89108333Y-81642857D01*
X89155952Y-81547619D01*
X89203571Y-81500000D01*
X89298809Y-81452380D01*
X89489285Y-81452380D01*
X89584523Y-81500000D01*
X89632142Y-81547619D01*
X89679761Y-81642857D01*
X89679761Y-81880952D01*
X89632142Y-81976190D01*
X89584523Y-82023809D01*
X89489285Y-82071428D01*
X89298809Y-82071428D01*
X89203571Y-82023809D01*
X89155952Y-81976190D01*
X89108333Y-81880952D01*
%TO.C,J21*%
X71184523Y-83602380D02*
X71184523Y-84316666D01*
X71232142Y-84459523D01*
X71327380Y-84554761D01*
X71470238Y-84602380D01*
X71565476Y-84602380D01*
X70755952Y-83697619D02*
X70708333Y-83650000D01*
X70613095Y-83602380D01*
X70375000Y-83602380D01*
X70279761Y-83650000D01*
X70232142Y-83697619D01*
X70184523Y-83792857D01*
X70184523Y-83888095D01*
X70232142Y-84030952D01*
X70803571Y-84602380D01*
X70184523Y-84602380D01*
X69232142Y-84602380D02*
X69803571Y-84602380D01*
X69517857Y-84602380D02*
X69517857Y-83602380D01*
X69613095Y-83745238D01*
X69708333Y-83840476D01*
X69803571Y-83888095D01*
%TO.C,J12*%
X110209523Y-81352380D02*
X110209523Y-82066666D01*
X110257142Y-82209523D01*
X110352380Y-82304761D01*
X110495238Y-82352380D01*
X110590476Y-82352380D01*
X109209523Y-82352380D02*
X109780952Y-82352380D01*
X109495238Y-82352380D02*
X109495238Y-81352380D01*
X109590476Y-81495238D01*
X109685714Y-81590476D01*
X109780952Y-81638095D01*
X108828571Y-81447619D02*
X108780952Y-81400000D01*
X108685714Y-81352380D01*
X108447619Y-81352380D01*
X108352380Y-81400000D01*
X108304761Y-81447619D01*
X108257142Y-81542857D01*
X108257142Y-81638095D01*
X108304761Y-81780952D01*
X108876190Y-82352380D01*
X108257142Y-82352380D01*
%TO.C,J7*%
X103108333Y-81452380D02*
X103108333Y-82166666D01*
X103155952Y-82309523D01*
X103251190Y-82404761D01*
X103394047Y-82452380D01*
X103489285Y-82452380D01*
X102727380Y-81452380D02*
X102060714Y-81452380D01*
X102489285Y-82452380D01*
%TO.C,J15*%
X211059523Y-81002380D02*
X211059523Y-81716666D01*
X211107142Y-81859523D01*
X211202380Y-81954761D01*
X211345238Y-82002380D01*
X211440476Y-82002380D01*
X210059523Y-82002380D02*
X210630952Y-82002380D01*
X210345238Y-82002380D02*
X210345238Y-81002380D01*
X210440476Y-81145238D01*
X210535714Y-81240476D01*
X210630952Y-81288095D01*
X209154761Y-81002380D02*
X209630952Y-81002380D01*
X209678571Y-81478571D01*
X209630952Y-81430952D01*
X209535714Y-81383333D01*
X209297619Y-81383333D01*
X209202380Y-81430952D01*
X209154761Y-81478571D01*
X209107142Y-81573809D01*
X209107142Y-81811904D01*
X209154761Y-81907142D01*
X209202380Y-81954761D01*
X209297619Y-82002380D01*
X209535714Y-82002380D01*
X209630952Y-81954761D01*
X209678571Y-81907142D01*
%TO.C,J13*%
X195759523Y-71202380D02*
X195759523Y-71916666D01*
X195807142Y-72059523D01*
X195902380Y-72154761D01*
X196045238Y-72202380D01*
X196140476Y-72202380D01*
X194759523Y-72202380D02*
X195330952Y-72202380D01*
X195045238Y-72202380D02*
X195045238Y-71202380D01*
X195140476Y-71345238D01*
X195235714Y-71440476D01*
X195330952Y-71488095D01*
X194426190Y-71202380D02*
X193807142Y-71202380D01*
X194140476Y-71583333D01*
X193997619Y-71583333D01*
X193902380Y-71630952D01*
X193854761Y-71678571D01*
X193807142Y-71773809D01*
X193807142Y-72011904D01*
X193854761Y-72107142D01*
X193902380Y-72154761D01*
X193997619Y-72202380D01*
X194283333Y-72202380D01*
X194378571Y-72154761D01*
X194426190Y-72107142D01*
%TO.C,J11*%
X77234523Y-83602380D02*
X77234523Y-84316666D01*
X77282142Y-84459523D01*
X77377380Y-84554761D01*
X77520238Y-84602380D01*
X77615476Y-84602380D01*
X76234523Y-84602380D02*
X76805952Y-84602380D01*
X76520238Y-84602380D02*
X76520238Y-83602380D01*
X76615476Y-83745238D01*
X76710714Y-83840476D01*
X76805952Y-83888095D01*
X75282142Y-84602380D02*
X75853571Y-84602380D01*
X75567857Y-84602380D02*
X75567857Y-83602380D01*
X75663095Y-83745238D01*
X75758333Y-83840476D01*
X75853571Y-83888095D01*
%TO.C,J22*%
X230159523Y-83552380D02*
X230159523Y-84266666D01*
X230207142Y-84409523D01*
X230302380Y-84504761D01*
X230445238Y-84552380D01*
X230540476Y-84552380D01*
X229730952Y-83647619D02*
X229683333Y-83600000D01*
X229588095Y-83552380D01*
X229350000Y-83552380D01*
X229254761Y-83600000D01*
X229207142Y-83647619D01*
X229159523Y-83742857D01*
X229159523Y-83838095D01*
X229207142Y-83980952D01*
X229778571Y-84552380D01*
X229159523Y-84552380D01*
X228778571Y-83647619D02*
X228730952Y-83600000D01*
X228635714Y-83552380D01*
X228397619Y-83552380D01*
X228302380Y-83600000D01*
X228254761Y-83647619D01*
X228207142Y-83742857D01*
X228207142Y-83838095D01*
X228254761Y-83980952D01*
X228826190Y-84552380D01*
X228207142Y-84552380D01*
D11*
%TO.C,J14*%
X204000000Y-72800000D02*
X204000000Y-73550000D01*
X204000000Y-73550000D02*
X201050000Y-73550000D01*
X205500000Y-76100000D02*
X206250000Y-76100000D01*
X201050000Y-73550000D02*
X201050000Y-76600000D01*
X200290000Y-72790000D02*
X206260000Y-72790000D01*
X206250000Y-74600000D02*
X205500000Y-74600000D01*
X206260000Y-72790000D02*
X206260000Y-80410000D01*
X200290000Y-80410000D02*
X200290000Y-72790000D01*
X206250000Y-77100000D02*
X205500000Y-77100000D01*
X204000000Y-79650000D02*
X201050000Y-79650000D01*
X206260000Y-80410000D02*
X200290000Y-80410000D01*
X206250000Y-76100000D02*
X206250000Y-77100000D01*
X205500000Y-72800000D02*
X206250000Y-72800000D01*
X206250000Y-80400000D02*
X205500000Y-80400000D01*
X206550000Y-80700000D02*
X205300000Y-80700000D01*
X206550000Y-79450000D02*
X206550000Y-80700000D01*
X206250000Y-72800000D02*
X206250000Y-74600000D01*
X205500000Y-80400000D02*
X205500000Y-78600000D01*
X205500000Y-74600000D02*
X205500000Y-72800000D01*
X204000000Y-80400000D02*
X204000000Y-79650000D01*
X205500000Y-77100000D02*
X205500000Y-76100000D01*
X206250000Y-78600000D02*
X206250000Y-80400000D01*
X205500000Y-78600000D02*
X206250000Y-78600000D01*
X201050000Y-79650000D02*
X201050000Y-76600000D01*
%TO.C,J16*%
X218500000Y-79550000D02*
X218500000Y-76050000D01*
X219250000Y-79550000D02*
X218500000Y-79550000D01*
X213290000Y-72740000D02*
X219260000Y-72740000D01*
X219250000Y-82850000D02*
X218500000Y-82850000D01*
X219550000Y-81900000D02*
X219550000Y-83150000D01*
X218500000Y-72750000D02*
X219250000Y-72750000D01*
X218500000Y-81050000D02*
X219250000Y-81050000D01*
X219250000Y-74550000D02*
X218500000Y-74550000D01*
X217000000Y-72750000D02*
X217000000Y-73500000D01*
X214050000Y-73500000D02*
X214050000Y-77800000D01*
X219260000Y-82860000D02*
X213290000Y-82860000D01*
X217000000Y-73500000D02*
X214050000Y-73500000D01*
X219260000Y-72740000D02*
X219260000Y-82860000D01*
X214050000Y-82100000D02*
X214050000Y-77800000D01*
X218500000Y-82850000D02*
X218500000Y-81050000D01*
X219550000Y-83150000D02*
X218300000Y-83150000D01*
X213290000Y-82860000D02*
X213290000Y-72740000D01*
X219250000Y-72750000D02*
X219250000Y-74550000D01*
X218500000Y-76050000D02*
X219250000Y-76050000D01*
X217000000Y-82850000D02*
X217000000Y-82100000D01*
X217000000Y-82100000D02*
X214050000Y-82100000D01*
X218500000Y-74550000D02*
X218500000Y-72750000D01*
X219250000Y-76050000D02*
X219250000Y-79550000D01*
X219250000Y-81050000D02*
X219250000Y-82850000D01*
%TO.C,J19*%
X52055000Y-74020000D02*
X49455000Y-74020000D01*
X49455000Y-74020000D02*
X49455000Y-84300000D01*
X54655000Y-76620000D02*
X52055000Y-76620000D01*
X54655000Y-75350000D02*
X54655000Y-74020000D01*
X54655000Y-76620000D02*
X54655000Y-84300000D01*
X54655000Y-74020000D02*
X53325000Y-74020000D01*
X52055000Y-76620000D02*
X52055000Y-74020000D01*
X54655000Y-84300000D02*
X49455000Y-84300000D01*
%TO.C,J2*%
X177840000Y-91660000D02*
X177840000Y-82540000D01*
X184220000Y-85624000D02*
X184126000Y-85531000D01*
X177600000Y-82300000D02*
X179100000Y-82300000D01*
X177840000Y-91660000D02*
X187960000Y-91660000D01*
X187960000Y-91660000D02*
X187960000Y-82540000D01*
X177840000Y-82540000D02*
X187960000Y-82540000D01*
X177840000Y-84100000D02*
X187960000Y-84100000D01*
X186470000Y-87875000D02*
X186411000Y-87816000D01*
X186675000Y-87669000D02*
X186581000Y-87576000D01*
X177600000Y-84040000D02*
X177600000Y-82300000D01*
X184390000Y-85384000D02*
X184331000Y-85326000D01*
X181883953Y-87389089D02*
G75*
G03*
X181884000Y-85811000I-1483948J789089D01*
G01*
X178916047Y-85810911D02*
G75*
G03*
X178916000Y-87389000I1483948J-789089D01*
G01*
X180429383Y-84919550D02*
G75*
G03*
X179611000Y-85116000I-29385J-1680445D01*
G01*
X181188712Y-85116648D02*
G75*
G03*
X180400000Y-84920000I-788710J-1483343D01*
G01*
X179610911Y-88083953D02*
G75*
G03*
X181189000Y-88084000I789089J1483948D01*
G01*
X186300000Y-89600000D02*
G75*
G03*
X186300000Y-89600000I-900000J0D01*
G01*
X187080000Y-86600000D02*
G75*
G03*
X187080000Y-86600000I-1680000J0D01*
G01*
X181300000Y-89600000D02*
G75*
G03*
X181300000Y-89600000I-900000J0D01*
G01*
%TO.C,J18*%
X195700000Y-86850000D02*
X195700000Y-87600000D01*
X206510000Y-81640000D02*
X206510000Y-87610000D01*
X205750000Y-85350000D02*
X205750000Y-82400000D01*
X193890000Y-87610000D02*
X193890000Y-81640000D01*
X193600000Y-87900000D02*
X193600000Y-86650000D01*
X195700000Y-87600000D02*
X193900000Y-87600000D01*
X203200000Y-86850000D02*
X203200000Y-87600000D01*
X204700000Y-86850000D02*
X206500000Y-86850000D01*
X197200000Y-86850000D02*
X203200000Y-86850000D01*
X206510000Y-87610000D02*
X193890000Y-87610000D01*
X197200000Y-87600000D02*
X197200000Y-86850000D01*
X194850000Y-87900000D02*
X193600000Y-87900000D01*
X206500000Y-86850000D02*
X206500000Y-87600000D01*
X193890000Y-81640000D02*
X206510000Y-81640000D01*
X206500000Y-85350000D02*
X205750000Y-85350000D01*
X194650000Y-85350000D02*
X194650000Y-82400000D01*
X194650000Y-82400000D02*
X200200000Y-82400000D01*
X193900000Y-87600000D02*
X193900000Y-86850000D01*
X206500000Y-87600000D02*
X204700000Y-87600000D01*
X204700000Y-87600000D02*
X204700000Y-86850000D01*
X203200000Y-87600000D02*
X197200000Y-87600000D01*
X193900000Y-86850000D02*
X195700000Y-86850000D01*
X193900000Y-85350000D02*
X194650000Y-85350000D01*
X205750000Y-82400000D02*
X200200000Y-82400000D01*
%TO.C,J10*%
X81400000Y-83150000D02*
X80650000Y-83150000D01*
X85850000Y-82400000D02*
X85850000Y-78100000D01*
X81400000Y-73050000D02*
X81400000Y-74850000D01*
X80650000Y-83150000D02*
X80650000Y-81350000D01*
X82900000Y-82400000D02*
X85850000Y-82400000D01*
X82900000Y-73050000D02*
X82900000Y-73800000D01*
X80640000Y-83160000D02*
X80640000Y-73040000D01*
X81400000Y-81350000D02*
X81400000Y-83150000D01*
X80650000Y-73050000D02*
X81400000Y-73050000D01*
X86610000Y-73040000D02*
X86610000Y-83160000D01*
X80650000Y-76350000D02*
X81400000Y-76350000D01*
X80350000Y-74000000D02*
X80350000Y-72750000D01*
X85850000Y-73800000D02*
X85850000Y-78100000D01*
X80640000Y-73040000D02*
X86610000Y-73040000D01*
X81400000Y-79850000D02*
X80650000Y-79850000D01*
X86610000Y-83160000D02*
X80640000Y-83160000D01*
X81400000Y-76350000D02*
X81400000Y-79850000D01*
X80350000Y-72750000D02*
X81600000Y-72750000D01*
X80650000Y-81350000D02*
X81400000Y-81350000D01*
X82900000Y-73800000D02*
X85850000Y-73800000D01*
X80650000Y-79850000D02*
X80650000Y-76350000D01*
X82900000Y-83150000D02*
X82900000Y-82400000D01*
X81400000Y-74850000D02*
X80650000Y-74850000D01*
X80650000Y-74850000D02*
X80650000Y-73050000D01*
%TO.C,J3*%
X66560000Y-73140000D02*
X56440000Y-73140000D01*
X57930000Y-76925000D02*
X57989000Y-76984000D01*
X57725000Y-77131000D02*
X57819000Y-77224000D01*
X66800000Y-82500000D02*
X65300000Y-82500000D01*
X60010000Y-79416000D02*
X60069000Y-79474000D01*
X56440000Y-73140000D02*
X56440000Y-82260000D01*
X66560000Y-82260000D02*
X56440000Y-82260000D01*
X66800000Y-80760000D02*
X66800000Y-82500000D01*
X66560000Y-73140000D02*
X66560000Y-82260000D01*
X66560000Y-80700000D02*
X56440000Y-80700000D01*
X60180000Y-79176000D02*
X60274000Y-79269000D01*
X64789089Y-76716047D02*
G75*
G03*
X63211000Y-76716000I-789089J-1483948D01*
G01*
X63211288Y-79683352D02*
G75*
G03*
X64000000Y-79880000I788710J1483343D01*
G01*
X62516047Y-77410911D02*
G75*
G03*
X62516000Y-78989000I1483948J-789089D01*
G01*
X63970617Y-79880450D02*
G75*
G03*
X64789000Y-79684000I29385J1680445D01*
G01*
X65483953Y-78989089D02*
G75*
G03*
X65484000Y-77411000I-1483948J789089D01*
G01*
X64900000Y-75200000D02*
G75*
G03*
X64900000Y-75200000I-900000J0D01*
G01*
X59900000Y-75200000D02*
G75*
G03*
X59900000Y-75200000I-900000J0D01*
G01*
X60680000Y-78200000D02*
G75*
G03*
X60680000Y-78200000I-1680000J0D01*
G01*
%TO.C,J17*%
X225760000Y-82860000D02*
X219790000Y-82860000D01*
X223500000Y-82850000D02*
X223500000Y-82100000D01*
X226050000Y-81900000D02*
X226050000Y-83150000D01*
X225750000Y-72750000D02*
X225750000Y-74550000D01*
X225750000Y-81050000D02*
X225750000Y-82850000D01*
X225000000Y-81050000D02*
X225750000Y-81050000D01*
X225000000Y-72750000D02*
X225750000Y-72750000D01*
X225750000Y-82850000D02*
X225000000Y-82850000D01*
X220550000Y-73500000D02*
X220550000Y-77800000D01*
X225750000Y-79550000D02*
X225000000Y-79550000D01*
X225760000Y-72740000D02*
X225760000Y-82860000D01*
X225750000Y-76050000D02*
X225750000Y-79550000D01*
X223500000Y-82100000D02*
X220550000Y-82100000D01*
X219790000Y-82860000D02*
X219790000Y-72740000D01*
X223500000Y-72750000D02*
X223500000Y-73500000D01*
X225000000Y-82850000D02*
X225000000Y-81050000D01*
X223500000Y-73500000D02*
X220550000Y-73500000D01*
X225000000Y-74550000D02*
X225000000Y-72750000D01*
X225000000Y-79550000D02*
X225000000Y-76050000D01*
X226050000Y-83150000D02*
X224800000Y-83150000D01*
X220550000Y-82100000D02*
X220550000Y-77800000D01*
X219790000Y-72740000D02*
X225760000Y-72740000D01*
X225000000Y-76050000D02*
X225750000Y-76050000D01*
X225750000Y-74550000D02*
X225000000Y-74550000D01*
%TO.C,J24*%
X73640000Y-86190000D02*
X86260000Y-86190000D01*
X82950000Y-91400000D02*
X82950000Y-92150000D01*
X75450000Y-92150000D02*
X73650000Y-92150000D01*
X84450000Y-92150000D02*
X84450000Y-91400000D01*
X74400000Y-86950000D02*
X79950000Y-86950000D01*
X73650000Y-91400000D02*
X75450000Y-91400000D01*
X74600000Y-92450000D02*
X73350000Y-92450000D01*
X85500000Y-86950000D02*
X79950000Y-86950000D01*
X85500000Y-89900000D02*
X85500000Y-86950000D01*
X73350000Y-92450000D02*
X73350000Y-91200000D01*
X86260000Y-92160000D02*
X73640000Y-92160000D01*
X86250000Y-92150000D02*
X84450000Y-92150000D01*
X86250000Y-91400000D02*
X86250000Y-92150000D01*
X73650000Y-92150000D02*
X73650000Y-91400000D01*
X84450000Y-91400000D02*
X86250000Y-91400000D01*
X82950000Y-92150000D02*
X76950000Y-92150000D01*
X74400000Y-89900000D02*
X74400000Y-86950000D01*
X73650000Y-89900000D02*
X74400000Y-89900000D01*
X76950000Y-91400000D02*
X82950000Y-91400000D01*
X75450000Y-91400000D02*
X75450000Y-92150000D01*
X86260000Y-86190000D02*
X86260000Y-92160000D01*
X76950000Y-92150000D02*
X76950000Y-91400000D01*
X86250000Y-89900000D02*
X85500000Y-89900000D01*
X73640000Y-92160000D02*
X73640000Y-86190000D01*
%TO.C,J8*%
X93750000Y-76300000D02*
X94500000Y-76300000D01*
X99710000Y-80610000D02*
X93740000Y-80610000D01*
X93750000Y-74800000D02*
X93750000Y-73000000D01*
X93450000Y-73950000D02*
X93450000Y-72700000D01*
X94500000Y-74800000D02*
X93750000Y-74800000D01*
X93750000Y-77300000D02*
X93750000Y-76300000D01*
X93750000Y-78800000D02*
X94500000Y-78800000D01*
X94500000Y-78800000D02*
X94500000Y-80600000D01*
X94500000Y-73000000D02*
X94500000Y-74800000D01*
X96000000Y-79850000D02*
X98950000Y-79850000D01*
X93750000Y-80600000D02*
X93750000Y-78800000D01*
X94500000Y-80600000D02*
X93750000Y-80600000D01*
X93740000Y-72990000D02*
X99710000Y-72990000D01*
X93740000Y-80610000D02*
X93740000Y-72990000D01*
X96000000Y-80600000D02*
X96000000Y-79850000D01*
X96000000Y-73000000D02*
X96000000Y-73750000D01*
X93750000Y-73000000D02*
X94500000Y-73000000D01*
X93450000Y-72700000D02*
X94700000Y-72700000D01*
X98950000Y-79850000D02*
X98950000Y-76800000D01*
X94500000Y-76300000D02*
X94500000Y-77300000D01*
X99710000Y-72990000D02*
X99710000Y-80610000D01*
X94500000Y-77300000D02*
X93750000Y-77300000D01*
X98950000Y-73750000D02*
X98950000Y-76800000D01*
X96000000Y-73750000D02*
X98950000Y-73750000D01*
%TO.C,J23*%
X96350000Y-86950000D02*
X92050000Y-86950000D01*
X87000000Y-89900000D02*
X87750000Y-89900000D01*
X87000000Y-92150000D02*
X87000000Y-91400000D01*
X93800000Y-91400000D02*
X93800000Y-92150000D01*
X88800000Y-91400000D02*
X88800000Y-92150000D01*
X86700000Y-92450000D02*
X86700000Y-91200000D01*
X87000000Y-91400000D02*
X88800000Y-91400000D01*
X97110000Y-92160000D02*
X86990000Y-92160000D01*
X95300000Y-91400000D02*
X97100000Y-91400000D01*
X86990000Y-86190000D02*
X97110000Y-86190000D01*
X88800000Y-92150000D02*
X87000000Y-92150000D01*
X90300000Y-91400000D02*
X93800000Y-91400000D01*
X86990000Y-92160000D02*
X86990000Y-86190000D01*
X87750000Y-89900000D02*
X87750000Y-86950000D01*
X96350000Y-89900000D02*
X96350000Y-86950000D01*
X87950000Y-92450000D02*
X86700000Y-92450000D01*
X95300000Y-92150000D02*
X95300000Y-91400000D01*
X97100000Y-91400000D02*
X97100000Y-92150000D01*
X97100000Y-92150000D02*
X95300000Y-92150000D01*
X93800000Y-92150000D02*
X90300000Y-92150000D01*
X97110000Y-86190000D02*
X97110000Y-92160000D01*
X97100000Y-89900000D02*
X96350000Y-89900000D01*
X90300000Y-92150000D02*
X90300000Y-91400000D01*
X87750000Y-86950000D02*
X92050000Y-86950000D01*
%TO.C,J1*%
X111700000Y-84040000D02*
X111700000Y-82300000D01*
X120775000Y-87669000D02*
X120681000Y-87576000D01*
X111940000Y-82540000D02*
X122060000Y-82540000D01*
X122060000Y-91660000D02*
X122060000Y-82540000D01*
X111940000Y-91660000D02*
X111940000Y-82540000D01*
X118320000Y-85624000D02*
X118226000Y-85531000D01*
X111940000Y-84100000D02*
X122060000Y-84100000D01*
X111940000Y-91660000D02*
X122060000Y-91660000D01*
X111700000Y-82300000D02*
X113200000Y-82300000D01*
X120570000Y-87875000D02*
X120511000Y-87816000D01*
X118490000Y-85384000D02*
X118431000Y-85326000D01*
X113016047Y-85810911D02*
G75*
G03*
X113016000Y-87389000I1483948J-789089D01*
G01*
X113710911Y-88083953D02*
G75*
G03*
X115289000Y-88084000I789089J1483948D01*
G01*
X114529383Y-84919550D02*
G75*
G03*
X113711000Y-85116000I-29385J-1680445D01*
G01*
X115288712Y-85116648D02*
G75*
G03*
X114500000Y-84920000I-788710J-1483343D01*
G01*
X115983953Y-87389089D02*
G75*
G03*
X115984000Y-85811000I-1483948J789089D01*
G01*
X120400000Y-89600000D02*
G75*
G03*
X120400000Y-89600000I-900000J0D01*
G01*
X121180000Y-86600000D02*
G75*
G03*
X121180000Y-86600000I-1680000J0D01*
G01*
X115400000Y-89600000D02*
G75*
G03*
X115400000Y-89600000I-900000J0D01*
G01*
%TO.C,J4*%
X234475000Y-76781000D02*
X234569000Y-76874000D01*
X243550000Y-82150000D02*
X242050000Y-82150000D01*
X243310000Y-72790000D02*
X233190000Y-72790000D01*
X233190000Y-72790000D02*
X233190000Y-81910000D01*
X236930000Y-78826000D02*
X237024000Y-78919000D01*
X243310000Y-72790000D02*
X243310000Y-81910000D01*
X243550000Y-80410000D02*
X243550000Y-82150000D01*
X243310000Y-81910000D02*
X233190000Y-81910000D01*
X234680000Y-76575000D02*
X234739000Y-76634000D01*
X243310000Y-80350000D02*
X233190000Y-80350000D01*
X236760000Y-79066000D02*
X236819000Y-79124000D01*
X239961288Y-79333352D02*
G75*
G03*
X240750000Y-79530000I788710J1483343D01*
G01*
X240720617Y-79530450D02*
G75*
G03*
X241539000Y-79334000I29385J1680445D01*
G01*
X241539089Y-76366047D02*
G75*
G03*
X239961000Y-76366000I-789089J-1483948D01*
G01*
X242233953Y-78639089D02*
G75*
G03*
X242234000Y-77061000I-1483948J789089D01*
G01*
X239266047Y-77060911D02*
G75*
G03*
X239266000Y-78639000I1483948J-789089D01*
G01*
X237430000Y-77850000D02*
G75*
G03*
X237430000Y-77850000I-1680000J0D01*
G01*
X241650000Y-74850000D02*
G75*
G03*
X241650000Y-74850000I-900000J0D01*
G01*
X236650000Y-74850000D02*
G75*
G03*
X236650000Y-74850000I-900000J0D01*
G01*
%TO.C,J9*%
X89450000Y-73750000D02*
X92400000Y-73750000D01*
X87200000Y-74800000D02*
X87200000Y-73000000D01*
X86900000Y-73950000D02*
X86900000Y-72700000D01*
X87950000Y-80600000D02*
X87200000Y-80600000D01*
X87190000Y-80610000D02*
X87190000Y-72990000D01*
X87950000Y-77300000D02*
X87200000Y-77300000D01*
X92400000Y-79850000D02*
X92400000Y-76800000D01*
X87200000Y-73000000D02*
X87950000Y-73000000D01*
X87950000Y-74800000D02*
X87200000Y-74800000D01*
X89450000Y-73000000D02*
X89450000Y-73750000D01*
X87200000Y-78800000D02*
X87950000Y-78800000D01*
X87190000Y-72990000D02*
X93160000Y-72990000D01*
X89450000Y-80600000D02*
X89450000Y-79850000D01*
X87200000Y-76300000D02*
X87950000Y-76300000D01*
X87950000Y-78800000D02*
X87950000Y-80600000D01*
X87950000Y-73000000D02*
X87950000Y-74800000D01*
X87950000Y-76300000D02*
X87950000Y-77300000D01*
X93160000Y-72990000D02*
X93160000Y-80610000D01*
X86900000Y-72700000D02*
X88150000Y-72700000D01*
X89450000Y-79850000D02*
X92400000Y-79850000D01*
X87200000Y-77300000D02*
X87200000Y-76300000D01*
X92400000Y-73750000D02*
X92400000Y-76800000D01*
X87200000Y-80600000D02*
X87200000Y-78800000D01*
X93160000Y-80610000D02*
X87190000Y-80610000D01*
%TO.C,J21*%
X67550000Y-81300000D02*
X68300000Y-81300000D01*
X67540000Y-83110000D02*
X67540000Y-72990000D01*
X72750000Y-82350000D02*
X72750000Y-78050000D01*
X73510000Y-83110000D02*
X67540000Y-83110000D01*
X68300000Y-73000000D02*
X68300000Y-74800000D01*
X67250000Y-73950000D02*
X67250000Y-72700000D01*
X68300000Y-76300000D02*
X68300000Y-79800000D01*
X68300000Y-83100000D02*
X67550000Y-83100000D01*
X68300000Y-81300000D02*
X68300000Y-83100000D01*
X73510000Y-72990000D02*
X73510000Y-83110000D01*
X67550000Y-76300000D02*
X68300000Y-76300000D01*
X69800000Y-73750000D02*
X72750000Y-73750000D01*
X67550000Y-79800000D02*
X67550000Y-76300000D01*
X72750000Y-73750000D02*
X72750000Y-78050000D01*
X69800000Y-82350000D02*
X72750000Y-82350000D01*
X67550000Y-74800000D02*
X67550000Y-73000000D01*
X67540000Y-72990000D02*
X73510000Y-72990000D01*
X67550000Y-73000000D02*
X68300000Y-73000000D01*
X67550000Y-83100000D02*
X67550000Y-81300000D01*
X68300000Y-74800000D02*
X67550000Y-74800000D01*
X69800000Y-73000000D02*
X69800000Y-73750000D01*
X67250000Y-72700000D02*
X68500000Y-72700000D01*
X69800000Y-83100000D02*
X69800000Y-82350000D01*
X68300000Y-79800000D02*
X67550000Y-79800000D01*
%TO.C,J12*%
X98090000Y-88660000D02*
X98090000Y-82690000D01*
X98850000Y-86400000D02*
X98850000Y-83450000D01*
X101400000Y-88650000D02*
X101400000Y-87900000D01*
X97800000Y-88950000D02*
X97800000Y-87700000D01*
X110710000Y-88660000D02*
X98090000Y-88660000D01*
X98100000Y-87900000D02*
X99900000Y-87900000D01*
X108900000Y-88650000D02*
X108900000Y-87900000D01*
X107400000Y-88650000D02*
X101400000Y-88650000D01*
X99050000Y-88950000D02*
X97800000Y-88950000D01*
X110700000Y-86400000D02*
X109950000Y-86400000D01*
X101400000Y-87900000D02*
X107400000Y-87900000D01*
X107400000Y-87900000D02*
X107400000Y-88650000D01*
X109950000Y-83450000D02*
X104400000Y-83450000D01*
X110700000Y-87900000D02*
X110700000Y-88650000D01*
X98850000Y-83450000D02*
X104400000Y-83450000D01*
X99900000Y-88650000D02*
X98100000Y-88650000D01*
X110700000Y-88650000D02*
X108900000Y-88650000D01*
X98100000Y-86400000D02*
X98850000Y-86400000D01*
X110710000Y-82690000D02*
X110710000Y-88660000D01*
X98100000Y-88650000D02*
X98100000Y-87900000D01*
X99900000Y-87900000D02*
X99900000Y-88650000D01*
X98090000Y-82690000D02*
X110710000Y-82690000D01*
X108900000Y-87900000D02*
X110700000Y-87900000D01*
X109950000Y-86400000D02*
X109950000Y-83450000D01*
%TO.C,J7*%
X100300000Y-74800000D02*
X100300000Y-73000000D01*
X100300000Y-80600000D02*
X100300000Y-78800000D01*
X102550000Y-73000000D02*
X102550000Y-73750000D01*
X106260000Y-80610000D02*
X100290000Y-80610000D01*
X100000000Y-72700000D02*
X101250000Y-72700000D01*
X105500000Y-73750000D02*
X105500000Y-76800000D01*
X101050000Y-80600000D02*
X100300000Y-80600000D01*
X102550000Y-73750000D02*
X105500000Y-73750000D01*
X101050000Y-78800000D02*
X101050000Y-80600000D01*
X105500000Y-79850000D02*
X105500000Y-76800000D01*
X100290000Y-80610000D02*
X100290000Y-72990000D01*
X102550000Y-80600000D02*
X102550000Y-79850000D01*
X100300000Y-77300000D02*
X100300000Y-76300000D01*
X100300000Y-76300000D02*
X101050000Y-76300000D01*
X101050000Y-73000000D02*
X101050000Y-74800000D01*
X106260000Y-72990000D02*
X106260000Y-80610000D01*
X100300000Y-78800000D02*
X101050000Y-78800000D01*
X101050000Y-76300000D02*
X101050000Y-77300000D01*
X100290000Y-72990000D02*
X106260000Y-72990000D01*
X100300000Y-73000000D02*
X101050000Y-73000000D01*
X101050000Y-77300000D02*
X100300000Y-77300000D01*
X102550000Y-79850000D02*
X105500000Y-79850000D01*
X100000000Y-73950000D02*
X100000000Y-72700000D01*
X101050000Y-74800000D02*
X100300000Y-74800000D01*
%TO.C,J15*%
X210500000Y-80400000D02*
X210500000Y-79650000D01*
X212750000Y-78600000D02*
X212750000Y-80400000D01*
X212000000Y-78600000D02*
X212750000Y-78600000D01*
X206790000Y-80410000D02*
X206790000Y-72790000D01*
X207550000Y-79650000D02*
X207550000Y-76600000D01*
X212000000Y-74600000D02*
X212000000Y-72800000D01*
X212000000Y-72800000D02*
X212750000Y-72800000D01*
X212750000Y-72800000D02*
X212750000Y-74600000D01*
X213050000Y-79450000D02*
X213050000Y-80700000D01*
X212750000Y-77100000D02*
X212000000Y-77100000D01*
X207550000Y-73550000D02*
X207550000Y-76600000D01*
X212750000Y-80400000D02*
X212000000Y-80400000D01*
X212000000Y-76100000D02*
X212750000Y-76100000D01*
X212760000Y-72790000D02*
X212760000Y-80410000D01*
X212000000Y-77100000D02*
X212000000Y-76100000D01*
X210500000Y-72800000D02*
X210500000Y-73550000D01*
X212750000Y-76100000D02*
X212750000Y-77100000D01*
X210500000Y-73550000D02*
X207550000Y-73550000D01*
X213050000Y-80700000D02*
X211800000Y-80700000D01*
X210500000Y-79650000D02*
X207550000Y-79650000D01*
X206790000Y-72790000D02*
X212760000Y-72790000D01*
X212760000Y-80410000D02*
X206790000Y-80410000D01*
X212750000Y-74600000D02*
X212000000Y-74600000D01*
X212000000Y-80400000D02*
X212000000Y-78600000D01*
%TO.C,J13*%
X199700000Y-77100000D02*
X198950000Y-77100000D01*
X197450000Y-72800000D02*
X197450000Y-73550000D01*
X199700000Y-76100000D02*
X199700000Y-77100000D01*
X198950000Y-72800000D02*
X199700000Y-72800000D01*
X198950000Y-77100000D02*
X198950000Y-76100000D01*
X193740000Y-72790000D02*
X199710000Y-72790000D01*
X194500000Y-73550000D02*
X194500000Y-76600000D01*
X200000000Y-80700000D02*
X198750000Y-80700000D01*
X199710000Y-80410000D02*
X193740000Y-80410000D01*
X197450000Y-73550000D02*
X194500000Y-73550000D01*
X197450000Y-80400000D02*
X197450000Y-79650000D01*
X198950000Y-78600000D02*
X199700000Y-78600000D01*
X194500000Y-79650000D02*
X194500000Y-76600000D01*
X199710000Y-72790000D02*
X199710000Y-80410000D01*
X197450000Y-79650000D02*
X194500000Y-79650000D01*
X199700000Y-72800000D02*
X199700000Y-74600000D01*
X198950000Y-74600000D02*
X198950000Y-72800000D01*
X200000000Y-79450000D02*
X200000000Y-80700000D01*
X199700000Y-74600000D02*
X198950000Y-74600000D01*
X199700000Y-78600000D02*
X199700000Y-80400000D01*
X193740000Y-80410000D02*
X193740000Y-72790000D01*
X198950000Y-80400000D02*
X198950000Y-78600000D01*
X198950000Y-76100000D02*
X199700000Y-76100000D01*
X199700000Y-80400000D02*
X198950000Y-80400000D01*
%TO.C,J11*%
X74100000Y-76250000D02*
X74850000Y-76250000D01*
X74100000Y-72950000D02*
X74850000Y-72950000D01*
X74090000Y-83060000D02*
X74090000Y-72940000D01*
X74850000Y-79750000D02*
X74100000Y-79750000D01*
X74100000Y-79750000D02*
X74100000Y-76250000D01*
X74100000Y-81250000D02*
X74850000Y-81250000D01*
X74100000Y-74750000D02*
X74100000Y-72950000D01*
X74100000Y-83050000D02*
X74100000Y-81250000D01*
X76350000Y-73700000D02*
X79300000Y-73700000D01*
X79300000Y-82300000D02*
X79300000Y-78000000D01*
X80060000Y-72940000D02*
X80060000Y-83060000D01*
X74850000Y-76250000D02*
X74850000Y-79750000D01*
X74850000Y-81250000D02*
X74850000Y-83050000D01*
X76350000Y-82300000D02*
X79300000Y-82300000D01*
X73800000Y-73900000D02*
X73800000Y-72650000D01*
X76350000Y-83050000D02*
X76350000Y-82300000D01*
X76350000Y-72950000D02*
X76350000Y-73700000D01*
X74850000Y-72950000D02*
X74850000Y-74750000D01*
X74090000Y-72940000D02*
X80060000Y-72940000D01*
X79300000Y-73700000D02*
X79300000Y-78000000D01*
X73800000Y-72650000D02*
X75050000Y-72650000D01*
X74850000Y-83050000D02*
X74100000Y-83050000D01*
X80060000Y-83060000D02*
X74090000Y-83060000D01*
X74850000Y-74750000D02*
X74100000Y-74750000D01*
%TO.C,J22*%
X232175000Y-82850000D02*
X231425000Y-82850000D01*
X232185000Y-72740000D02*
X232185000Y-82860000D01*
X226215000Y-72740000D02*
X232185000Y-72740000D01*
X231425000Y-79550000D02*
X231425000Y-76050000D01*
X229925000Y-82850000D02*
X229925000Y-82100000D01*
X229925000Y-82100000D02*
X226975000Y-82100000D01*
X231425000Y-76050000D02*
X232175000Y-76050000D01*
X229925000Y-72750000D02*
X229925000Y-73500000D01*
X229925000Y-73500000D02*
X226975000Y-73500000D01*
X232475000Y-83150000D02*
X231225000Y-83150000D01*
X231425000Y-72750000D02*
X232175000Y-72750000D01*
X232175000Y-79550000D02*
X231425000Y-79550000D01*
X232175000Y-74550000D02*
X231425000Y-74550000D01*
X231425000Y-82850000D02*
X231425000Y-81050000D01*
X232175000Y-72750000D02*
X232175000Y-74550000D01*
X232185000Y-82860000D02*
X226215000Y-82860000D01*
X232175000Y-76050000D02*
X232175000Y-79550000D01*
X226975000Y-73500000D02*
X226975000Y-77800000D01*
X231425000Y-74550000D02*
X231425000Y-72750000D01*
X231425000Y-81050000D02*
X232175000Y-81050000D01*
X232175000Y-81050000D02*
X232175000Y-82850000D01*
X232475000Y-81900000D02*
X232475000Y-83150000D01*
X226215000Y-82860000D02*
X226215000Y-72740000D01*
X226975000Y-82100000D02*
X226975000Y-77800000D01*
%TD*%
M02*
